<svg width="81" height="81" viewBox="0 0 81 81" fill="none" xmlns="http://www.w3.org/2000/svg">
<g id="fi_4140047" clip-path="url(#clip0_1294_11329)">
<g id="Group">
<path id="Vector" d="M9.35643 64.4138H71.942C76.3439 58.1795 78.9308 50.5721 78.9308 42.3599C78.9308 21.2176 61.7916 4.07837 40.6492 4.07837C19.5069 4.07837 2.36768 21.2176 2.36768 42.3599C2.36768 50.5721 4.95455 58.1795 9.35643 64.4138Z" fill="#FFC839"/>
<path id="Vector_2" d="M71.2156 62.6506C68.8348 57.8892 64.6564 56.5597 62.7527 56.194C62.7527 56.194 57.8834 55.3051 53.5812 53.5559C53.4489 53.9789 53.1605 54.3542 52.7373 54.5823C49.8023 56.1648 45.8436 57.4631 40.7531 57.4631C39.7164 57.4631 38.7291 57.4068 37.7853 57.3076C37.8097 57.3625 37.8328 57.417 37.8586 57.4723C36.8108 57.6048 33.455 58.1148 30.1373 59.5381C24.8216 61.8181 22.0117 65.3903 22.0117 69.8684V75.8043C27.5272 78.885 33.8827 80.6415 40.6491 80.6415C53.5792 80.6415 65.0111 74.2301 71.9419 64.4139C71.7231 63.7747 71.482 63.1834 71.2156 62.6506Z" fill="#72AAFC"/>
<path id="Vector_3" d="M27.8999 53.481C23.5541 55.2797 18.5457 56.1941 18.5457 56.1941C16.6418 56.5597 12.4635 57.8892 10.0827 62.6506C9.81629 63.1835 9.57535 63.7747 9.35645 64.4139C12.7118 69.1661 17.1219 73.1202 22.2463 75.9353C22.2463 74.3292 22.2463 72.3367 22.2463 69.8685C22.2463 59.1635 38.2135 57.6672 38.2135 57.6672C38.1572 57.5553 38.1052 57.4455 38.055 57.3366C34.2386 56.9742 31.1616 55.8725 28.7668 54.5806C28.3193 54.3391 28.0205 53.9339 27.8999 53.481Z" fill="#548BED"/>
<path id="Vector_4" d="M53.8148 52.2223L50.8144 47.4033C50.3923 46.7251 49.5807 46.4031 48.806 46.598C46.4643 47.1872 43.7159 47.632 40.7535 47.632C40.4448 47.632 40.139 47.6261 39.8351 47.6167V50.1803C39.3823 50.4047 38.003 51.2014 37.3965 52.8342C36.8966 54.18 37.0523 55.7389 37.8588 57.4722C37.6977 57.4925 37.4816 57.5219 37.2201 57.5622C38.3343 57.6983 39.5101 57.7755 40.7534 57.7755C46.0123 57.7755 50.1019 56.4344 53.134 54.7995C54.0621 54.2992 54.3719 53.1173 53.8148 52.2223Z" fill="#548BED"/>
<path id="Vector_5" d="M32.699 46.5966C31.9241 46.4015 31.1124 46.7235 30.6901 47.4018L27.6901 52.2206C27.1329 53.1156 27.4426 54.2971 28.3705 54.7977C30.8955 56.1598 34.1566 57.3151 38.2124 57.6646C35.4845 52.2343 40.0693 50.3299 40.0693 50.3299V47.6234C37.3679 47.5615 34.8602 47.141 32.699 46.5966Z" fill="#3E7FDD"/>
<g id="Group_2">
<path id="Vector_6" d="M54.503 44.8008C53.4485 41.1073 53.0113 38.2241 52.9166 35.9961C52.1156 38.8863 51.0689 41.4453 49.7939 43.627C49.0583 44.8861 48.1452 46.0136 47.0847 46.9906C45.5005 56.233 48.4628 63.1953 50.7941 67C51.2853 67.8017 52.5944 67.4655 52.5817 66.5397C52.4769 58.8775 57.3425 54.7459 54.503 44.8008Z" fill="#45304C"/>
</g>
<path id="Vector_7" d="M40.7514 6.79473C43.2086 6.79473 45.2931 7.26769 47.0478 7.99645C47.0974 7.67613 47.1235 7.34785 47.1235 7.01363C47.1233 3.49441 44.2705 0.641602 40.7514 0.641602C37.2324 0.641602 34.3794 3.49441 34.3794 7.01363C34.3794 7.34785 34.4055 7.67598 34.455 7.99645C36.2097 7.26769 38.2942 6.79473 40.7514 6.79473Z" fill="#56415E"/>
<path id="Vector_8" d="M40.7514 5.44473C38.2471 2.94035 40.7514 0.641602 40.7514 0.641602C37.2324 0.641602 34.3794 3.49441 34.3794 7.01363C34.3794 7.34785 34.4055 7.67598 34.455 7.99645C36.2097 7.26769 38.2942 6.79488 40.7514 6.79488V5.44473Z" fill="#45304C"/>
<g id="Group_3">
<path id="Vector_9" d="M33.3417 8.92248C35.3078 7.90811 37.7527 7.2042 40.7516 7.2042C43.7505 7.2042 46.1953 7.90811 48.1614 8.92264C48.5106 9.10279 48.8477 9.29873 49.1746 9.5067C47.2011 7.03232 44.1625 5.44482 40.7516 5.44482C37.3406 5.44482 34.3021 7.03217 32.3286 9.50654C32.6553 9.29857 32.9925 9.10264 33.3417 8.92248Z" fill="#D3DCFB"/>
</g>
<path id="Vector_10" d="M28.299 26.7097C28.4773 26.1264 28.7212 25.6214 29.051 25.2497C29.3479 24.9151 29.5342 24.5012 29.5474 24.0584C29.6246 21.4717 30.6188 13.0911 40.1668 16.7512C40.542 16.895 40.9607 16.895 41.3359 16.7512C50.8838 13.0911 51.8781 21.4717 51.9552 24.0584C51.9685 24.5012 52.1548 24.9151 52.4517 25.2497C52.7815 25.6214 53.0254 26.1264 53.2037 26.7097V26.7095C53.6874 26.387 54.4385 26.1647 55.1173 26.1806L55.1174 26.1786V19.9003C55.1174 15.1426 52.4653 10.7334 48.1612 8.51296C46.1951 7.49858 43.7503 6.79468 40.7513 6.79468C37.7524 6.79468 35.3076 7.49858 33.3415 8.51296C29.0374 10.7334 26.3853 15.1426 26.3853 19.9003V26.1786L26.3854 26.1806C27.0642 26.1648 27.8153 26.3872 28.299 26.7097Z" fill="#56415E"/>
<path id="Vector_11" d="M40.7513 6.79468C37.7524 6.79468 35.3076 7.49858 33.3415 8.51296C29.0374 10.7334 26.3853 15.1426 26.3853 19.9003V26.1786L26.3854 26.1806C27.0643 26.1647 27.8153 26.3872 28.299 26.7095C28.4773 26.1262 28.7212 25.6212 29.051 25.2495C29.3479 24.915 29.5342 24.5011 29.5474 24.0583C29.6232 21.5212 30.5821 13.4119 39.6276 16.555C39.5898 16.5056 39.5535 16.4559 39.5126 16.4072C35.2685 11.3556 40.7513 6.79468 40.7513 6.79468Z" fill="#45304C"/>
<path id="Vector_12" d="M28.1809 34.1686C28.1809 34.1686 27.4017 29.2372 28.2992 26.3003C27.4848 25.7575 25.9116 25.4925 25.2041 26.1842C23.7553 27.6004 24.8169 29.7392 25.3248 31.0901C25.4808 31.505 25.5814 31.9245 25.6269 32.3448C25.7258 33.2581 26.2209 34.5948 28.2741 34.5634C28.243 34.4318 28.2113 34.3023 28.1809 34.1686Z" fill="#FC9460"/>
<path id="Vector_13" d="M56.2993 26.1842C55.5916 25.4925 54.0183 25.7575 53.2041 26.3003C54.1016 29.2372 53.3224 34.1686 53.3224 34.1686C53.2921 34.3023 53.2603 34.4318 53.2293 34.5634C55.2825 34.595 55.7777 33.2583 55.8766 32.3448C55.9221 31.9245 56.0227 31.505 56.1786 31.0901C56.6864 29.7392 57.748 27.6004 56.2993 26.1842Z" fill="#FFAA7B"/>
<path id="Vector_14" d="M52.5283 24.7723C52.2325 24.4389 52.0697 24.0494 52.0576 23.6459C52.0119 22.1103 51.6241 18.3519 49.0194 16.6173C47.1717 15.387 44.5744 15.3998 41.2994 16.6558C40.9459 16.7912 40.5567 16.7912 40.2034 16.6558C39.8064 16.5036 39.4197 16.3704 39.0426 16.2547C36.3914 18.0325 35.9958 21.8655 35.949 23.4331C35.9367 23.8459 35.7705 24.244 35.4676 24.585C33.7997 26.4647 34.165 31.9562 34.554 34.217C35.4159 38.0211 36.6644 41.3381 38.264 44.0761C39.5872 46.3405 41.4673 48.1917 43.7558 49.5097C46.2975 48.2086 48.3733 46.2628 49.7937 43.8315C51.3578 41.155 52.5786 37.9114 53.4231 34.1844C53.7887 31.8605 54.1781 26.6315 52.5283 24.7723Z" fill="#FFC7AB"/>
<g id="Group_4">
<path id="Vector_15" d="M38.3931 43.8315C36.8287 41.1542 35.6079 37.9108 34.7653 34.1909C34.3847 31.9801 34.0276 26.6103 35.6586 24.7722C35.9547 24.4387 36.1173 24.0494 36.1294 23.6458C36.1751 22.1101 36.5629 18.3514 39.1676 16.617C39.2797 16.5423 39.3948 16.4726 39.5125 16.4072C36.5619 15.4062 34.1989 15.475 32.4834 16.617C29.8786 18.3515 29.4909 22.1101 29.4451 23.6458C29.4331 24.0494 29.2704 24.4387 28.9744 24.7722C27.3433 26.6101 27.7004 31.9801 28.0811 34.1909C28.9239 37.9108 30.1447 41.1542 31.7089 43.8315C33.297 46.5495 35.7022 48.6634 38.664 49.9448C39.9908 50.5186 41.512 50.5187 42.8384 49.9448C43.2694 49.7584 43.6869 49.5523 44.0933 49.3314C41.7054 48.0334 39.7503 46.154 38.3931 43.8315Z" fill="#FFAA7B"/>
</g>
<path id="Vector_16" d="M64.1066 12.1077C61.6027 14.15 59.0822 17.4277 60.5677 21.7753C63.219 29.5352 56.2863 40.1331 64.0757 47.9225C68.6596 52.5064 74.139 52.2877 77.873 51.3316C78.5643 48.4539 78.9308 45.4499 78.9308 42.36C78.9307 30.057 73.1257 19.1111 64.1066 12.1077Z" fill="#FFDD40"/>
<path id="Vector_17" d="M17.1917 12.1077C19.6956 14.15 22.2161 17.4277 20.7306 21.7753C18.0794 29.5352 25.0121 40.1331 17.2227 47.9225C12.6388 52.5064 7.15939 52.2877 3.42533 51.3316C2.73408 48.4539 2.36768 45.4499 2.36768 42.36C2.36768 30.057 8.17268 19.1111 17.1917 12.1077Z" fill="#FFDD40"/>
<path id="Vector_18" d="M66.6051 70.4956C65.8347 67.4121 63.9239 65.6237 62.3748 64.6443C61.3981 64.0268 60.1245 64.7218 60.1245 65.8774V75.3227C62.4551 73.9426 64.6265 72.322 66.6051 70.4956Z" fill="#548BED"/>
<path id="Vector_19" d="M50.1631 50.3753C50.1631 54.557 50.8529 58.6351 53.8273 59.1406C54.995 55.1095 56.3114 51.1339 54.5031 44.8008C54.4595 44.6481 54.4186 44.4989 54.377 44.3489C52.444 45.3851 50.1631 47.2662 50.1631 50.3753Z" fill="#56415E"/>
</g>
</g>
<defs>
<clipPath id="clip0_1294_11329">
<rect width="80" height="80" fill="white" transform="translate(0.649414 0.641602)"/>
</clipPath>
</defs>
</svg>
