<svg width="80" height="80" viewBox="0 0 80 80" fill="none" xmlns="http://www.w3.org/2000/svg">
<path d="M63.1628 47.3056V29.7082C63.1584 26.4939 60.5534 23.89 57.3396 23.8867H23.1901C19.9769 23.8911 17.3724 26.495 17.3685 29.7082V59.2944C17.3702 61.4762 16.5068 63.5691 14.9683 65.1159H50.4231L60.1972 49.4171C60.8619 48.343 61.9305 47.5822 63.1628 47.3056Z" fill="url(#paint0_linear_5737_8245)" fill-opacity="0.3"/>
<path d="M23.19 21.4329H54.5183V21.2243C54.515 18.0105 51.9105 15.4055 48.6962 15.4017H35.4675C34.6272 15.4017 33.8247 15.0471 33.2588 14.4263L28.462 9.17949C27.3582 7.97303 25.7994 7.28583 24.1648 7.28418H8.3508C5.13761 7.28802 2.53259 9.89194 2.5293 13.1057V59.294C2.53259 62.5078 5.13761 65.1117 8.3508 65.1155H9.0918C12.3061 65.1128 14.9111 62.5078 14.9155 59.294V29.7079C14.921 25.14 18.6221 21.4383 23.19 21.4329Z" fill="#C8C8C8"/>
<path d="M66.1482 50.7128C65.7327 50.0454 65.0016 49.6387 64.2145 49.6387C63.4268 49.6387 62.6957 50.0454 62.2802 50.7128L51.2432 68.4397C50.8057 69.1423 50.7837 70.0266 51.1855 70.75C51.5873 71.4734 52.3497 71.9219 53.1774 71.9219H75.2515C76.0787 71.9219 76.8411 71.4734 77.2429 70.75C77.6447 70.0266 77.6222 69.1423 77.1852 68.4397L66.1482 50.7128ZM65.4407 68.3788C65.4407 69.0556 64.8918 69.6056 64.2145 69.6056C63.5366 69.6056 62.9877 69.0556 62.9877 68.3788V67.4792C62.9877 66.8018 63.5366 66.2524 64.2145 66.2524C64.8918 66.2524 65.4407 66.8018 65.4407 67.4792V68.3788ZM65.4407 64.3483C65.4407 65.0251 64.8918 65.5751 64.2145 65.5751C63.5366 65.5751 62.9877 65.0251 62.9877 64.3483V56.3362C62.9877 55.6594 63.5366 55.11 64.2145 55.11C64.8918 55.11 65.4407 55.6594 65.4407 56.3362V64.3483Z" fill="#8D8D8D"/>
<defs>
<linearGradient id="paint0_linear_5737_8245" x1="39.0687" y1="65.1104" x2="39.0687" y2="23.8688" gradientUnits="userSpaceOnUse">
<stop stop-color="#A6A5A5"/>
<stop offset="1" stop-color="#DDDDDD"/>
</linearGradient>
</defs>
</svg>
