<svg width="23" height="22" viewBox="0 0 23 22" fill="none" xmlns="http://www.w3.org/2000/svg">
<path d="M7.83967 2.1874C6.34642 2.59218 4.83419 3.07071 3.93917 3.36277C3.69293 3.44312 3.52001 3.65635 3.48754 3.90003C2.72597 9.61523 4.48562 13.7866 6.58526 16.5334C7.63941 17.9125 8.78001 18.9325 9.73087 19.603C10.2067 19.9385 10.6273 20.1811 10.9578 20.3367C11.1233 20.4146 11.2587 20.4671 11.3615 20.499C11.4461 20.5252 11.4897 20.5314 11.5 20.5329C11.5104 20.5314 11.5539 20.5252 11.6385 20.499C11.7413 20.4671 11.8767 20.4146 12.0422 20.3367C12.3727 20.1811 12.7933 19.9385 13.2691 19.603C14.22 18.9325 15.3606 17.9125 16.4147 16.5334C18.5144 13.7866 20.274 9.61523 19.5125 3.90003C19.48 3.65635 19.3071 3.44312 19.0608 3.36276C18.1658 3.07071 16.6536 2.59218 15.1603 2.1874C13.6336 1.77355 12.2299 1.46667 11.5 1.46667C10.7701 1.46667 9.36642 1.77355 7.83967 2.1874ZM7.47353 0.769523C8.9664 0.364847 10.552 0 11.5 0C12.4481 0 14.0336 0.364847 15.5265 0.769522C17.0529 1.18328 18.5907 1.67009 19.4952 1.96526C20.2502 2.2116 20.8212 2.87869 20.9308 3.70163C21.7512 9.85795 19.8489 14.4194 17.5417 17.4377C16.3925 18.9412 15.1434 20.0618 14.0808 20.8111C13.5498 21.1856 13.0577 21.4727 12.6398 21.6695C12.2537 21.8512 11.8406 22 11.5 22C11.1594 22 10.7463 21.8512 10.3602 21.6695C9.9423 21.4727 9.4502 21.1856 8.91925 20.8111C7.85658 20.0618 6.60751 18.9412 5.45825 17.4377C3.15106 14.4194 1.24884 9.85795 2.06919 3.70163C2.17885 2.87869 2.74985 2.2116 3.50476 1.96527C4.40935 1.67009 5.94715 1.18328 7.47353 0.769523Z" fill="#656666"/>
<path d="M10.127 15.125C10.127 14.3656 10.7426 13.75 11.502 13.75C12.2613 13.75 12.877 14.3656 12.877 15.125C12.877 15.8844 12.2613 16.5 11.502 16.5C10.7426 16.5 10.127 15.8844 10.127 15.125Z" fill="#656666"/>
<path d="M10.2617 6.86818C10.1884 6.13564 10.7636 5.5 11.4998 5.5C12.236 5.5 12.8113 6.13564 12.738 6.86818L12.2557 11.6909C12.2169 12.0793 11.8901 12.375 11.4998 12.375C11.1095 12.375 10.7828 12.0793 10.7439 11.6909L10.2617 6.86818Z" fill="#656666"/>
</svg>
