<svg width="36" height="36" viewBox="0 0 36 36" fill="none" xmlns="http://www.w3.org/2000/svg">
<g filter="url(#filter0_d_284_24990)">
<path d="M13 11.5H23H13ZM13 16.5H18H13ZM18 26.5C24.9037 26.5 30.5 20.9037 30.5 14C30.5 7.09625 24.9037 1.5 18 1.5C11.0963 1.5 5.5 7.09625 5.5 14C5.5 16.2762 6.10875 18.4125 7.1725 20.25L6.125 25.875L11.75 24.8275C13.6494 25.9263 15.8056 26.5033 18 26.5Z" fill="#D7F9F5"/>
<path d="M13 11.5H23M13 16.5H18M18 26.5C24.9037 26.5 30.5 20.9037 30.5 14C30.5 7.09625 24.9037 1.5 18 1.5C11.0963 1.5 5.5 7.09625 5.5 14C5.5 16.2762 6.10875 18.4125 7.1725 20.25L6.125 25.875L11.75 24.8275C13.6494 25.9263 15.8056 26.5033 18 26.5V26.5Z" stroke="#14B19E" stroke-width="1.5" stroke-linecap="round" stroke-linejoin="round"/>
</g>
<defs>
<filter id="filter0_d_284_24990" x="0.75" y="0.75" width="34.5" height="34.5" filterUnits="userSpaceOnUse" color-interpolation-filters="sRGB">
<feFlood flood-opacity="0" result="BackgroundImageFix"/>
<feColorMatrix in="SourceAlpha" type="matrix" values="0 0 0 0 0 0 0 0 0 0 0 0 0 0 0 0 0 0 127 0" result="hardAlpha"/>
<feOffset dy="4"/>
<feGaussianBlur stdDeviation="2"/>
<feComposite in2="hardAlpha" operator="out"/>
<feColorMatrix type="matrix" values="0 0 0 0 0 0 0 0 0 0 0 0 0 0 0 0 0 0 0.1 0"/>
<feBlend mode="normal" in2="BackgroundImageFix" result="effect1_dropShadow_284_24990"/>
<feBlend mode="normal" in="SourceGraphic" in2="effect1_dropShadow_284_24990" result="shape"/>
</filter>
</defs>
</svg>
