<svg width="21" height="21" viewBox="0 0 21 21" fill="none" xmlns="http://www.w3.org/2000/svg">
<g id="fi_5291043">
<g id="7-Check">
<path id="Vector" d="M3.43799 9.23877C3.11494 9.23968 2.79876 9.33203 2.52601 9.50514C2.25326 9.67824 2.03509 9.92504 1.89675 10.217C1.75841 10.5089 1.70554 10.834 1.74428 11.1547C1.78301 11.4755 1.91175 11.7786 2.11561 12.0293L6.4614 17.3528C6.61635 17.5452 6.81496 17.6979 7.04076 17.7981C7.26655 17.8983 7.513 17.9432 7.75963 17.9291C8.28711 17.9008 8.76334 17.6186 9.06696 17.1546L18.0943 2.61617C18.0958 2.61376 18.0973 2.61134 18.0989 2.60897C18.1836 2.47892 18.1561 2.22118 17.9813 2.05927C17.9333 2.01481 17.8766 1.98065 17.8149 1.9589C17.7532 1.93715 17.6877 1.92826 17.6224 1.93279C17.5571 1.93732 17.4934 1.95517 17.4353 1.98523C17.3771 2.0153 17.3258 2.05695 17.2843 2.10762C17.2811 2.1116 17.2778 2.11552 17.2743 2.11939L8.17016 12.4057C8.13552 12.4449 8.09344 12.4767 8.04638 12.4995C7.99932 12.5222 7.9482 12.5354 7.89601 12.5382C7.84381 12.541 7.79158 12.5335 7.74233 12.5159C7.69309 12.4984 7.64783 12.4713 7.60916 12.4361L4.58766 9.68649C4.27385 9.39882 3.8637 9.2391 3.43799 9.23877Z" fill="#10DC7C"/>
</g>
</g>
</svg>
