<svg width="20" height="21" viewBox="0 0 20 21" fill="none" xmlns="http://www.w3.org/2000/svg">
<path d="M9.99905 16.9583H7.76572C6.79906 16.9583 5.95739 16.375 5.62406 15.475C5.28239 14.575 5.53239 13.5833 6.25739 12.9416L12.9157 7.11663C13.3157 6.76663 13.3241 6.29163 13.2074 5.96663C13.0824 5.64163 12.7657 5.29163 12.2324 5.29163H9.99905C9.65739 5.29163 9.37406 5.00829 9.37406 4.66663C9.37406 4.32496 9.65739 4.04163 9.99905 4.04163H12.2324C13.1991 4.04163 14.0407 4.62496 14.3741 5.52496C14.7157 6.42496 14.4657 7.41663 13.7407 8.05829L7.08239 13.8833C6.68239 14.2333 6.67405 14.7083 6.79072 15.0333C6.91572 15.3583 7.23239 15.7083 7.76572 15.7083H9.99905C10.3407 15.7083 10.6241 15.9916 10.6241 16.3333C10.6241 16.675 10.3407 16.9583 9.99905 16.9583Z" fill="#14B19E"/>
<path d="M16.6657 13H14.1657C13.249 13 12.499 13.75 12.499 14.6667V17.1667C12.499 18.0833 13.249 18.8333 14.1657 18.8333H16.6657C17.5824 18.8333 18.3324 18.0833 18.3324 17.1667V14.6667C18.3324 13.75 17.5824 13 16.6657 13ZM15.424 16.75C14.9657 16.75 14.5907 16.375 14.5907 15.9167C14.5907 15.4583 14.9574 15.0833 15.424 15.0833H15.4324C15.8907 15.0833 16.2657 15.4583 16.2657 15.9167C16.2657 16.375 15.8907 16.75 15.424 16.75Z" fill="#14B19E"/>
<path d="M4.55729 2.16663C2.94896 2.16663 1.64062 3.47496 1.64062 5.08329C1.64062 6.69163 2.94896 7.99996 4.55729 7.99996C6.16563 7.99996 7.47396 6.69163 7.47396 5.08329C7.47396 3.47496 6.17396 2.16663 4.55729 2.16663ZM4.59063 5.91663C4.13229 5.91663 3.75729 5.54163 3.75729 5.08329C3.75729 4.62496 4.12396 4.24996 4.59063 4.24996H4.59896C5.05729 4.24996 5.43229 4.62496 5.43229 5.08329C5.43229 5.54163 5.05729 5.91663 4.59063 5.91663Z" fill="#14B19E"/>
</svg>
