<svg width="24" height="25" viewBox="0 0 24 25" fill="none" xmlns="http://www.w3.org/2000/svg">
  <g id="Frame 1597886089">
    <g id="Group 1">
      <path id="Vector" d="M13.6572 4.81616C13.6572 7.18661 11.7356 9.1084 9.36499 9.1084C6.99455 9.1084 5.07275 7.18666 5.07275 4.81616C5.07275 2.44567 6.9945 0.523926 9.36499 0.523926C11.7356 0.523926 13.6572 2.44567 13.6572 4.81616Z" fill="currentColor"/>
      <path id="Vector_2" d="M15.7065 11.8418C12.1905 11.8418 9.36572 14.6966 9.36572 18.1826C9.36572 21.6686 12.2207 24.5234 15.7065 24.5234C19.1925 24.5234 22.0473 21.6686 22.0473 18.1826C22.0473 14.6966 19.2225 11.8418 15.7065 11.8418ZM11.1689 15.4781C11.3793 15.1176 11.6497 14.7568 11.9803 14.4564C13.2124 13.2243 14.9253 12.6834 16.6984 12.9839C17.3896 13.104 18.0507 13.3746 18.6217 13.7651C19.3128 14.2158 19.8539 14.817 20.2444 15.4782C20.3645 15.6886 20.3045 15.989 20.0641 16.1093L19.8536 16.1995C18.8017 16.6803 17.5998 16.6803 16.5479 16.2295C16.3075 16.1093 16.0071 16.0492 15.7065 16.0492C15.4059 16.0492 15.1354 16.1093 14.865 16.2295C13.8131 16.6801 12.6112 16.6801 11.5593 16.1995L11.349 16.1091C11.1388 15.989 11.0484 15.6884 11.1688 15.4782L11.1689 15.4781ZM14.9253 22.3899L14.8651 22.9007C14.8351 23.1711 14.5645 23.3514 14.3243 23.2915C13.4529 23.051 12.6112 22.6003 11.9503 21.9392C10.9586 20.9475 10.3876 19.6252 10.3876 18.2128C10.3876 17.9122 10.6882 17.702 10.9586 17.7921L11.83 18.0325C12.7014 18.273 13.4829 18.7838 14.0237 19.5051L14.0537 19.5351C14.6849 20.3165 15.0154 21.3383 14.9253 22.3899H14.9253ZM15.7667 19.2347C15.1355 19.2646 14.6247 18.7538 14.6548 18.1228C14.6848 17.582 15.1055 17.1611 15.6465 17.1311C16.2777 17.1012 16.7885 17.612 16.7584 18.243C16.7584 18.7838 16.3075 19.2045 15.7667 19.2347ZM19.4329 21.9092C18.7718 22.5703 17.9604 23.0512 17.0889 23.2615C16.8185 23.3216 16.5781 23.1414 16.5481 22.8707L16.5181 22.3599C16.428 21.308 16.7586 20.2863 17.3895 19.4749L17.4195 19.4449C17.9603 18.7236 18.7418 18.2127 19.6132 17.9723L20.4546 17.7319C20.725 17.6717 20.9954 17.852 20.9954 18.1526C20.9956 19.5952 20.4546 20.9175 19.4329 21.9092Z" fill="currentColor"/>
      <path id="Vector_3" d="M15.6094 11.458C14.8858 10.2874 13.8608 9.32682 12.6248 8.72656C11.7506 9.47695 10.6049 9.92708 9.36887 9.92708C8.13284 9.92708 6.98736 9.47693 6.11299 8.75647C3.73148 9.98717 2.07333 12.4483 1.95264 15.3599V17.8213C1.95264 18.8118 5.14817 19.6224 9.0975 19.6523C9.00707 19.2021 8.94672 18.7218 8.94672 18.2415C8.94693 14.5197 11.9315 11.518 15.6098 11.458L15.6094 11.458Z" fill="currentColor"/>
    </g>
  </g>
</svg>
