<svg width="50" height="50" viewBox="0 0 50 50" fill="none" xmlns="http://www.w3.org/2000/svg">
<path d="M16.3151 39.3464L12.2535 34.082L8.57917 34.9095C5.02008 35.7158 2.53906 38.3626 2.53906 41.3389V45.7377C2.53906 46.202 3.01009 46.582 3.58592 46.582H20.0105L20.8008 40.7774C19.1511 41.1459 17.2956 40.6215 16.3151 39.3464Z" fill="#7D8584" fill-opacity="0.5"/>
<path d="M29.1084 38.9013C30.0309 39.4131 31.2945 39.198 31.8838 38.429L35.0586 34.2887L30.7467 32.129L25.0053 36.623H24.997L24.4645 36.9176L24.9952 36.6231L19.2545 32.1289L14.9414 34.2886L18.1172 38.4289C18.7065 39.1979 19.9691 39.413 20.8916 38.9012L21.434 38.6001L23.0638 39.9202L22.2391 45.9961H27.7601L26.9354 39.9245L28.5688 38.6015L29.1084 38.9013Z" fill="#7D8584" fill-opacity="0.5"/>
<path d="M12.3003 9.09062C12.8713 8.48828 13.6832 8.12158 14.5684 8.12158H35.4211C36.3063 8.12158 37.1182 8.48818 37.6945 9.0958C37.7119 9.03701 38.4568 7.89072 37.9511 6.47686C37.188 4.3292 35.4838 4.64365 26.2493 0.259277C25.4583 -0.0864258 24.5522 -0.0864258 23.7612 0.259277C14.3847 4.70889 12.8153 4.34307 12.0541 6.47158C11.5379 7.91514 12.2819 9.02666 12.3003 9.09062Z" fill="#7D8584" fill-opacity="0.5"/>
<path d="M35.4211 10.2169H14.5684C14.0865 10.2169 13.6674 10.5416 13.5522 11.0131C13.2312 12.3052 13.1959 13.1761 13.1959 14.3184C13.1959 15.0518 13.4869 15.7651 14.132 16.3073C14.3792 24.8524 17.1981 27.5384 21.0167 30.7819C21.8465 31.4911 22.9048 31.8816 23.9968 31.8816H26.0187C27.1108 31.8816 28.1692 31.491 28.9978 30.7825C32.7285 27.6032 35.5946 25.0242 35.8713 16.3034C36.4396 15.8209 36.809 15.1037 36.809 14.2817C36.809 13.3598 36.809 12.4954 36.437 11.0078C36.3222 10.5416 35.9031 10.2169 35.4211 10.2169ZM27.6378 29.1889C27.1871 29.5742 26.6121 29.7864 26.0188 29.7864H23.9969C23.4035 29.7864 22.8285 29.5743 22.3756 29.1868C19.3704 26.6364 16.6284 24.587 16.2505 16.9269H16.3387L18.7953 19.3102C19.8639 20.3473 21.273 20.9183 22.7658 20.9183H27.2444C28.732 20.9183 30.1409 20.3473 31.2095 19.3155L33.6766 16.9269H33.7508C33.3696 24.2585 30.958 26.3614 27.6378 29.1889Z" fill="#7D8584" fill-opacity="0.5"/>
<circle cx="39.8926" cy="39.8926" r="10.1074" fill="white"/>
<path fill-rule="evenodd" clip-rule="evenodd" d="M46.4922 36.4356C44.9228 38.4874 42.5035 39.6935 39.8926 39.6935C37.2817 39.6935 34.8624 38.4875 33.2929 36.4357C32.7508 37.4665 32.4427 38.6389 32.441 39.8818C35.5495 39.9763 38.0492 42.5342 38.0492 45.6654C38.0492 46.1406 37.9916 46.6105 37.8777 47.0676C38.5187 47.248 39.1946 47.3447 39.8925 47.3447C40.5906 47.3447 41.2663 47.2479 41.9075 47.0676C41.7936 46.6105 41.736 46.1406 41.736 45.6654C41.7361 42.5343 44.2354 39.9765 47.3442 39.8818C47.3424 38.6388 47.0345 37.4664 46.4922 36.4356ZM39.8926 40.3321C40.6807 40.3321 41.3218 40.9732 41.3218 41.7612C41.3218 42.5489 40.6807 43.1903 39.8926 43.1903C39.1046 43.1903 38.4635 42.5489 38.4635 41.7612C38.4635 40.9732 39.1046 40.3321 39.8926 40.3321Z" fill="#7D8584" fill-opacity="0.5"/>
<path fill-rule="evenodd" clip-rule="evenodd" d="M48.2044 39.8925C48.2044 43.5249 45.8623 46.6201 42.6091 47.7483C42.5975 47.7534 42.5856 47.7579 42.5734 47.7619L42.55 47.769C41.7153 48.0515 40.8214 48.2047 39.8925 48.2047C38.9636 48.2047 38.0699 48.0515 37.2352 47.7691L37.2115 47.7619C37.1992 47.7579 37.1872 47.7533 37.1755 47.7482C34.0593 46.6673 31.7795 43.7816 31.5933 40.3478L31.5925 40.3353C31.5847 40.1886 31.5806 40.041 31.5806 39.8925C31.5806 38.2617 32.0531 36.7393 32.8678 35.4544C32.884 35.4196 32.905 35.3869 32.9305 35.3571C34.4156 33.0851 36.9815 31.5807 39.8925 31.5807C42.8033 31.5806 45.3691 33.085 46.8543 35.3567C46.8801 35.3867 46.9013 35.4198 46.9177 35.4549C47.7322 36.7397 48.2044 38.2619 48.2044 39.8925ZM39.8925 30.4425C34.6817 30.4425 30.4425 34.6817 30.4425 39.8925C30.4425 45.1032 34.6817 49.3426 39.8925 49.3426C45.1036 49.3426 49.3423 45.1031 49.3423 39.8925C49.3423 34.6817 45.1035 30.4425 39.8925 30.4425Z" fill="#7D8584" fill-opacity="0.5"/>
</svg>
