<svg width="24" height="25" viewBox="0 0 24 25" fill="none" xmlns="http://www.w3.org/2000/svg">
<g id="fi_2685031" clip-path="url(#clip0_1294_13010)">
<g id="Group">
<path id="Vector" d="M0.703069 22.8821H2.10921C2.49749 22.8821 2.81227 22.5674 2.81227 22.1791V14.4453H0.703069C0.314787 14.4453 0 14.7601 0 15.1484V22.1791C0 22.5673 0.314787 22.8821 0.703069 22.8821Z" fill="currentColor"/>
<path id="Vector_2" d="M18.3736 1.79004C15.2672 1.79004 12.749 4.3082 12.749 7.41459C12.749 10.5209 15.2672 13.0391 18.3736 13.0391C21.48 13.0391 23.9981 10.5209 23.9981 7.41459C23.9981 4.3082 21.48 1.79004 18.3736 1.79004ZM19.5518 9.94498C19.3995 10.0211 19.2399 10.081 19.0765 10.1264V10.3207C19.0765 10.709 18.7618 11.0238 18.3735 11.0238C17.9852 11.0238 17.6704 10.709 17.6704 10.3207V10.1484C17.3777 10.0747 17.1048 9.95084 16.8736 9.77746C16.563 9.54451 16.5 9.10383 16.733 8.79317C16.966 8.4826 17.4067 8.41956 17.7173 8.65255C17.9985 8.86347 18.5394 8.87913 18.923 8.68733C19.0771 8.61023 19.1603 8.51742 19.1603 8.46929C19.1603 8.38515 19.1603 8.37217 19.0668 8.32225C18.8833 8.22434 18.5589 8.16415 18.2452 8.10599C17.8264 8.02827 17.3934 7.94794 17.0182 7.74766C16.4702 7.45518 16.1805 6.97536 16.1805 6.36008C16.1805 5.7441 16.5499 5.20611 17.194 4.8841C17.3466 4.80775 17.5066 4.74733 17.6704 4.70192V4.50867C17.6704 4.12038 17.9852 3.8056 18.3735 3.8056C18.7618 3.8056 19.0765 4.12038 19.0765 4.50867V4.68082C19.3693 4.75455 19.6421 4.87853 19.8734 5.0519C20.184 5.2849 20.247 5.72558 20.014 6.0362C19.781 6.34681 19.3404 6.40981 19.0297 6.17681C18.748 5.96556 18.2067 5.94991 17.8228 6.14175C17.6677 6.21928 17.5867 6.31026 17.5867 6.36003C17.5867 6.44421 17.5867 6.45715 17.6802 6.50711C17.8637 6.60503 18.1881 6.66521 18.5017 6.72338C18.9205 6.80109 19.3536 6.88143 19.7289 7.08171C20.2768 7.37419 20.5664 7.85401 20.5664 8.46929C20.5665 9.08466 20.1966 9.62255 19.5518 9.94498Z" fill="currentColor"/>
<path id="Vector_3" d="M12.6926 23.2569H12.8473C15.2096 23.2288 17.4734 22.5586 19.4703 21.3492L23.3933 18.6073C24.0542 18.1432 24.1808 17.2715 23.7449 16.6528C23.2949 16.0059 22.4231 15.8513 21.7903 16.3013L18.0219 18.9448C16.8126 19.6479 15.3362 19.8025 14.0003 19.3525L9.66475 17.9182C9.29915 17.8058 9.10225 17.398 9.22884 17.0324C9.34129 16.6809 9.70688 16.4841 10.0725 16.5825C10.0865 16.5825 14.9424 18.1574 14.9424 18.1574C15.7601 18.4024 16.4866 17.9398 16.7141 17.2574C16.9531 16.5121 16.5454 15.7247 15.8142 15.4857L9.20068 13.3202C7.75413 12.7936 5.80481 12.9024 4.21826 13.7896V21.6603L9.73501 22.9101C10.7456 23.1324 11.7372 23.2569 12.6926 23.2569Z" fill="currentColor"/>
</g>
</g>
<defs>
<clipPath id="clip0_1294_13010">
<rect width="24" height="24" fill="currentColor" transform="translate(0 0.523438)"/>
</clipPath>
</defs>
</svg>
