<svg width="19" height="17" viewBox="0 0 19 17" fill="none" xmlns="http://www.w3.org/2000/svg">
<path d="M9.15153 14.3438C5.72857 14.3438 2.94507 11.7229 2.94507 8.5C2.94507 5.27708 5.72857 2.65625 9.15153 2.65625C12.5745 2.65625 15.358 5.27708 15.358 8.5C15.358 11.7229 12.5745 14.3438 9.15153 14.3438ZM9.15153 3.71875C6.35298 3.71875 4.07352 5.865 4.07352 8.5C4.07352 11.135 6.35298 13.2812 9.15153 13.2812C11.9501 13.2812 14.2296 11.135 14.2296 8.5C14.2296 5.865 11.9501 3.71875 9.15153 3.71875Z" fill="#76A8A2"/>
<path d="M9.15169 11.1562C7.59443 11.1562 6.33057 9.96625 6.33057 8.5C6.33057 7.03375 7.59443 5.84375 9.15169 5.84375C10.7089 5.84375 11.9728 7.03375 11.9728 8.5C11.9728 9.96625 10.7089 11.1562 9.15169 11.1562ZM9.15169 6.90625C8.21884 6.90625 7.45901 7.62167 7.45901 8.5C7.45901 9.37833 8.21884 10.0938 9.15169 10.0938C10.0845 10.0938 10.8444 9.37833 10.8444 8.5C10.8444 7.62167 10.0845 6.90625 9.15169 6.90625Z" fill="#76A8A2"/>
<path d="M9.15163 3.3646C8.84318 3.3646 8.5874 3.12377 8.5874 2.83335V1.41669C8.5874 1.12627 8.84318 0.885437 9.15163 0.885437C9.46007 0.885437 9.71585 1.12627 9.71585 1.41669V2.83335C9.71585 3.12377 9.46007 3.3646 9.15163 3.3646Z" fill="#76A8A2"/>
<path d="M3.13328 9.03125H1.62868C1.32023 9.03125 1.06445 8.79042 1.06445 8.5C1.06445 8.20958 1.32023 7.96875 1.62868 7.96875H3.13328C3.44172 7.96875 3.6975 8.20958 3.6975 8.5C3.6975 8.79042 3.44172 9.03125 3.13328 9.03125Z" fill="#76A8A2"/>
<path d="M9.15163 16.1146C8.84318 16.1146 8.5874 15.8738 8.5874 15.5834V14.1667C8.5874 13.8763 8.84318 13.6354 9.15163 13.6354C9.46007 13.6354 9.71585 13.8763 9.71585 14.1667V15.5834C9.71585 15.8738 9.46007 16.1146 9.15163 16.1146Z" fill="#76A8A2"/>
<path d="M16.6745 9.03125H15.1699C14.8615 9.03125 14.6057 8.79042 14.6057 8.5C14.6057 8.20958 14.8615 7.96875 15.1699 7.96875H16.6745C16.983 7.96875 17.2388 8.20958 17.2388 8.5C17.2388 8.79042 16.983 9.03125 16.6745 9.03125Z" fill="#76A8A2"/>
</svg>
