<svg width="19" height="20" viewBox="0 0 19 20" fill="none" xmlns="http://www.w3.org/2000/svg">
<path d="M9.50016 12C4.49016 12 0.410156 15.36 0.410156 19.5C0.410156 19.78 0.630156 20 0.910156 20H18.0902C18.3702 20 18.5902 19.78 18.5902 19.5C18.5902 15.36 14.5102 12 9.50016 12Z" fill="#FF6767"/>
<path d="M13.21 1.66C12.31 0.64 10.97 0 9.5 0C8.1 0 6.82 0.57 5.91 1.51C5.04 2.41 4.5 3.65 4.5 5C4.5 5.94 4.76 6.82 5.23 7.57C5.48 8 5.8 8.39 6.18 8.71C7.05 9.51 8.21 10 9.5 10C11.33 10 12.91 9.02 13.78 7.57C14.04 7.14 14.24 6.66 14.35 6.16C14.45 5.79 14.5 5.4 14.5 5C14.5 3.72 14.01 2.55 13.21 1.66ZM11.37 5.92H7.63C7.11 5.92 6.69 5.5 6.69 4.98C6.69 4.46 7.11 4.04 7.63 4.04H11.37C11.89 4.04 12.31 4.46 12.31 4.98C12.31 5.5 11.89 5.92 11.37 5.92Z" fill="#FF6767"/>
</svg>
