<svg width="16" height="15" viewBox="0 0 16 15" fill="none" xmlns="http://www.w3.org/2000/svg">
<path d="M6.72267 13.626C6.44437 13.2928 6.24345 12.8925 6.14433 12.4429L5.59061 9.93127C5.4744 9.40414 5.09406 8.94874 4.57482 8.71504L2.1229 7.62796C0.942339 7.10455 0.283201 5.97301 0.449659 4.74588C0.616118 3.51875 1.54544 2.57738 2.83388 2.35128L12.4535 0.643095C13.5305 0.449157 14.6266 0.837196 15.3084 1.65357C15.9903 2.46994 16.1373 3.57026 15.691 4.51948L11.7302 13.003C11.1978 14.1343 10.0227 14.7814 8.72444 14.6534C7.90445 14.5732 7.20041 14.1981 6.72267 13.626ZM6.11616 8.5521C6.3991 8.89087 6.59538 9.28563 6.6923 9.70979L7.24602 12.2214C7.44304 13.1306 8.20298 13.527 8.84452 13.5876C9.48606 13.6482 10.3124 13.4166 10.7091 12.5678L14.6699 4.08423C14.945 3.48929 14.8564 2.82401 14.4296 2.31308C14.0029 1.80216 13.3401 1.56776 12.6603 1.68949L3.04067 3.39767C2.07813 3.56893 1.6402 4.27703 1.56576 4.884C1.49132 5.49097 1.71934 6.2775 2.60183 6.67226L5.05375 7.75934C5.47291 7.94167 5.83323 8.21333 6.11616 8.5521Z" fill="#76A8A2"/>
</svg>
