<svg width="30" height="30" viewBox="0 0 30 30" fill="none" xmlns="http://www.w3.org/2000/svg">
<path d="M24 8.56019C23.998 7.89296 23.7365 7.25271 23.271 6.77502C22.8054 6.29734 22.1723 6.01974 21.5057 6.00101C20.8392 5.98228 20.1915 6.2239 19.6999 6.67468C19.2082 7.12547 18.9113 7.75003 18.8718 8.4161L10.8765 10.0159C10.6895 9.62712 10.4077 9.29177 10.0569 9.04084C9.7062 8.78991 9.29791 8.63149 8.86979 8.58023C8.44168 8.52898 8.00756 8.58653 7.60755 8.74758C7.20755 8.90863 6.85458 9.16797 6.58125 9.50164C6.30792 9.83531 6.12306 10.2325 6.04376 10.6566C5.96446 11.0807 5.99327 11.5179 6.12753 11.9279C6.26179 12.3379 6.49717 12.7074 6.81191 13.0023C7.12666 13.2971 7.51061 13.5079 7.92828 13.615V18.9437C7.48983 19.0564 7.08897 19.283 6.76637 19.6008C6.44378 19.9185 6.21094 20.316 6.09148 20.7529C5.97203 21.1898 5.97021 21.6505 6.08622 22.0883C6.20222 22.5261 6.43193 22.9254 6.752 23.2457C7.07208 23.566 7.47115 23.7958 7.90869 23.9119C8.34624 24.028 8.80668 24.0262 9.2433 23.9066C9.67991 23.7871 10.0772 23.5541 10.3947 23.2313C10.7122 22.9085 10.9388 22.5074 11.0513 22.0687H16.3769C16.4837 22.4869 16.6943 22.8714 16.989 23.1866C17.2837 23.5019 17.6531 23.7376 18.063 23.8721C18.4729 24.0067 18.9101 24.0356 19.3341 23.9563C19.7582 23.8769 20.1554 23.6919 20.489 23.4183C20.8227 23.1446 21.082 22.7912 21.2429 22.3907C21.4039 21.9903 21.4614 21.5556 21.41 21.127C21.3586 20.6985 21.2001 20.2898 20.9491 19.9387C20.698 19.5877 20.3626 19.3057 19.9737 19.1187L21.5725 11.1184C22.227 11.0827 22.8431 10.7977 23.2944 10.3221C23.7457 9.84644 23.9982 9.21608 24 8.56019ZM21.4285 7.27366C21.6828 7.27366 21.9314 7.34912 22.1428 7.49048C22.3543 7.63185 22.5191 7.83278 22.6164 8.06786C22.7137 8.30294 22.7392 8.56162 22.6896 8.81118C22.6399 9.06074 22.5175 9.28998 22.3377 9.4699C22.1579 9.64983 21.9288 9.77236 21.6794 9.822C21.43 9.87164 21.1714 9.84616 20.9365 9.74879C20.7016 9.65141 20.5008 9.48651 20.3595 9.27495C20.2182 9.06338 20.1428 8.81464 20.1428 8.56019C20.1431 8.21909 20.2787 7.89205 20.5197 7.65085C20.7608 7.40966 21.0876 7.274 21.4285 7.27366ZM7.28541 11.1332C7.28541 10.8788 7.36082 10.6301 7.5021 10.4185C7.64337 10.2069 7.84418 10.042 8.07912 9.94465C8.31405 9.84727 8.57257 9.8218 8.82198 9.87144C9.07139 9.92108 9.30049 10.0436 9.4803 10.2235C9.66012 10.4035 9.78257 10.6327 9.83218 10.8823C9.88179 11.1318 9.85633 11.3905 9.75901 11.6256C9.6617 11.8607 9.4969 12.0616 9.28547 12.203C9.07403 12.3443 8.82544 12.4198 8.57115 12.4198C8.23025 12.4194 7.90342 12.2838 7.66237 12.0426C7.42132 11.8014 7.28575 11.4743 7.28541 11.1332ZM8.57115 22.712C8.31685 22.712 8.06827 22.6365 7.85683 22.4952C7.64539 22.3538 7.48059 22.1529 7.38328 21.9178C7.28597 21.6827 7.2605 21.424 7.31011 21.1745C7.35972 20.9249 7.48218 20.6957 7.66199 20.5157C7.84181 20.3358 8.0709 20.2133 8.32031 20.1636C8.56972 20.114 8.82824 20.1395 9.06318 20.2369C9.29812 20.3342 9.49892 20.4991 9.6402 20.7107C9.78148 20.9223 9.85689 21.171 9.85689 21.4255C9.85654 21.7666 9.72097 22.0936 9.47993 22.3348C9.23888 22.576 8.91204 22.7116 8.57115 22.712ZM16.3769 20.7822H11.0513C10.9362 20.3399 10.7052 19.9364 10.3822 19.6132C10.0593 19.2901 9.65601 19.059 9.21402 18.9437V13.615C9.73927 13.4782 10.2076 13.1782 10.5515 12.7581C10.8955 12.338 11.0973 11.8195 11.1278 11.2773L19.1232 9.67754C19.3752 10.1961 19.7937 10.6152 20.3119 10.8676L18.713 18.8672C18.1712 18.8978 17.653 19.0997 17.2332 19.4439C16.8133 19.788 16.5135 20.2566 16.3769 20.7822ZM18.857 22.712C18.6028 22.712 18.3542 22.6365 18.1427 22.4952C17.9313 22.3538 17.7665 22.1529 17.6692 21.9178C17.5719 21.6827 17.5464 21.424 17.596 21.1745C17.6456 20.9249 17.7681 20.6957 17.9479 20.5157C18.1277 20.3358 18.3568 20.2133 18.6062 20.1636C18.8556 20.114 19.1141 20.1395 19.3491 20.2369C19.584 20.3342 19.7848 20.4991 19.9261 20.7107C20.0674 20.9223 20.1428 21.171 20.1428 21.4255C20.1424 21.7666 20.0069 22.0936 19.7658 22.3348C19.5248 22.576 19.1979 22.7116 18.857 22.712Z" fill="currentColor"/>
<rect x="0.5" y="0.5" width="29" height="29" stroke="currentColor"/>
</svg>
