<svg width="30" height="30" viewBox="0 0 30 30" fill="none" xmlns="http://www.w3.org/2000/svg">
<path d="M18.0124 12.0723V11.6C18.0124 9.70886 20.5117 9.70886 20.5117 11.6M10.5146 13.7269L8.84503 15.9373C8.61177 16.2461 8.49458 16.6262 8.51375 17.0117C8.53292 17.3973 8.68724 17.764 8.95 18.0485L12.1024 21.4634C12.4174 21.8051 12.8622 21.9995 13.3296 21.9995H17.1793C19.1788 21.9995 20.5117 20.7586 20.5117 18.6904V11.6L10.5146 13.7269Z" stroke="currentColor" stroke-width="1.5" stroke-linecap="round" stroke-linejoin="round"/>
<path d="M18.013 12.0724V10.8539C18.013 8.96277 15.5137 8.96277 15.5137 10.8539M15.5137 12.0724V10.8539V12.0724ZM15.5137 10.4179V10.8539V10.4179Z" stroke="currentColor" stroke-width="1.5" stroke-linecap="round" stroke-linejoin="round"/>
<path d="M10.5137 16.2092V10.4183C10.5137 10.0892 10.6453 9.77361 10.8797 9.5409C11.114 9.30818 11.4319 9.17745 11.7633 9.17745C12.4531 9.17745 13.013 9.63658 13.013 10.3224V12.0729M15.5123 12.0729V10.8543C15.5123 8.96319 18.0115 8.96319 18.0115 10.8543V12.0729H15.5123ZM13.013 12.0729V10.4183C13.013 8.52722 15.5123 8.52722 15.5123 10.4183V12.0729H13.013Z" stroke="currentColor" stroke-width="1.5" stroke-linecap="round" stroke-linejoin="round"/>
<rect x="0.5" y="0.5" width="29" height="29" stroke="currentColor"/>
</svg>
