<svg width="25" height="24" viewBox="0 0 25 24" fill="none" xmlns="http://www.w3.org/2000/svg">
<path d="M9.5 2C6.88 2 4.75 4.13 4.75 6.75C4.75 9.32 6.76 11.4 9.38 11.49C9.46 11.48 9.54 11.48 9.6 11.49C9.62 11.49 9.63 11.49 9.65 11.49C9.66 11.49 9.66 11.49 9.67 11.49C12.23 11.4 14.24 9.32 14.25 6.75C14.25 4.13 12.12 2 9.5 2Z" fill="#228391"/>
<path d="M14.58 14.1499C11.79 12.2899 7.23996 12.2899 4.42996 14.1499C3.15996 14.9999 2.45996 16.1499 2.45996 17.3799C2.45996 18.6099 3.15996 19.7499 4.41996 20.5899C5.81996 21.5299 7.65996 21.9999 9.49996 21.9999C11.34 21.9999 13.18 21.5299 14.58 20.5899C15.84 19.7399 16.54 18.5999 16.54 17.3599C16.53 16.1299 15.84 14.9899 14.58 14.1499Z" fill="#228391"/>
<path d="M20.4899 7.3401C20.6499 9.2801 19.2699 10.9801 17.3599 11.2101C17.3499 11.2101 17.3499 11.2101 17.3399 11.2101H17.3099C17.2499 11.2101 17.1899 11.2101 17.1399 11.2301C16.1699 11.2801 15.2799 10.9701 14.6099 10.4001C15.6399 9.4801 16.2299 8.1001 16.1099 6.6001C16.0399 5.7901 15.7599 5.0501 15.3399 4.4201C15.7199 4.2301 16.1599 4.1101 16.6099 4.0701C18.5699 3.9001 20.3199 5.3601 20.4899 7.3401Z" fill="#228391"/>
<path d="M22.4902 16.5899C22.4102 17.5599 21.7902 18.3999 20.7502 18.9699C19.7502 19.5199 18.4902 19.7799 17.2402 19.7499C17.9602 19.0999 18.3802 18.2899 18.4602 17.4299C18.5602 16.1899 17.9702 14.9999 16.7902 14.0499C16.1202 13.5199 15.3402 13.0999 14.4902 12.7899C16.7002 12.1499 19.4802 12.5799 21.1902 13.9599C22.1102 14.6999 22.5802 15.6299 22.4902 16.5899Z" fill="#228391"/>
</svg>
