<svg width="24" height="25" viewBox="0 0 24 25" fill="none" xmlns="http://www.w3.org/2000/svg">
<g id="fi_3358799" clip-path="url(#clip0_1294_13031)">
<path id="Vector" d="M3.836 16.3644C4.5 16.9584 5.253 17.4294 6.06 17.7834L10.304 15.1184C11.182 14.5644 12.358 14.6954 13.093 15.4344L14.52 16.8614C16.659 15.2844 18 12.7614 18 10.0234C18 5.33644 14.187 1.52344 9.5 1.52344C4.813 1.52344 1 5.33644 1 10.0234C1 12.4424 2.033 14.7534 3.836 16.3644ZM9.88 10.7734H9.12C7.951 10.7734 7 9.82244 7 8.65344C7 7.60244 7.758 6.73744 8.75 6.56144V5.77344C8.75 5.35944 9.086 5.02344 9.5 5.02344C9.914 5.02344 10.25 5.35944 10.25 5.77344V6.52344H11.25C11.664 6.52344 12 6.85944 12 7.27344C12 7.68744 11.664 8.02344 11.25 8.02344H9.12C8.778 8.02344 8.5 8.30144 8.5 8.64344C8.5 8.99544 8.778 9.27344 9.12 9.27344H9.88C11.049 9.27344 12 10.2244 12 11.3934C12 12.4444 11.242 13.3094 10.25 13.4854V14.2724C10.25 14.6864 9.914 15.0224 9.5 15.0224C9.086 15.0224 8.75 14.6864 8.75 14.2724V13.5234H7.75C7.336 13.5234 7 13.1874 7 12.7734C7 12.3594 7.336 12.0234 7.75 12.0234H9.88C10.222 12.0234 10.5 11.7454 10.5 11.4034C10.5 11.0514 10.222 10.7734 9.88 10.7734Z" fill="currentColor"/>
<path id="Vector_2" d="M23.0001 12.5234H19.0001C18.5961 12.5234 18.2301 12.7674 18.0761 13.1404C17.9211 13.5144 18.0071 13.9444 18.2931 14.2304L19.5861 15.5234L15.5001 19.6094L12.2071 16.3164C11.8801 15.9874 11.3661 15.9304 10.9741 16.1734L0.474124 22.6734C0.0041244 22.9644 -0.139876 23.5804 0.150124 24.0494C0.339124 24.3554 0.666124 24.5234 1.00112 24.5234C1.18112 24.5234 1.36212 24.4754 1.52612 24.3734L11.3521 18.2904L14.7921 21.7304C15.1831 22.1214 15.8151 22.1214 16.2061 21.7304L21.0001 16.9374L22.2931 18.2304C22.4841 18.4214 22.7401 18.5234 23.0001 18.5234C23.1291 18.5234 23.2591 18.4984 23.3831 18.4474C23.7571 18.2924 24.0001 17.9274 24.0001 17.5234V13.5234C24.0001 12.9714 23.5531 12.5234 23.0001 12.5234Z" fill="currentColor"/>
</g>
<defs>
<clipPath id="clip0_1294_13031">
<rect width="24" height="24" fill="currentColor" transform="translate(0 0.523438)"/>
</clipPath>
</defs>
</svg>
