<svg width="13" height="14" viewBox="0 0 18 19" fill="none" xmlns="http://www.w3.org/2000/svg">
<g id="fi_15691905">
<g id="Group">
<path id="Vector" d="M15.3562 4.77559L16.2 5.61934C16.5094 5.92871 17.0156 5.92871 17.325 5.61934C17.4656 5.47871 17.55 5.28184 17.55 5.05684C17.55 4.83184 17.4656 4.63496 17.325 4.49434L15.4688 2.63809C15.2156 2.38496 14.9062 2.27246 14.5687 2.27246C14.2312 2.27246 13.8937 2.41309 13.6687 2.63809L11.8125 4.49434C11.6719 4.63496 11.5875 4.83184 11.5875 5.05684C11.5875 5.28184 11.6719 5.47871 11.8125 5.61934C11.9531 5.75996 12.15 5.84434 12.375 5.84434C12.6 5.84434 12.7969 5.75996 12.9375 5.61934L13.7812 4.77559V12.7912C13.7812 14.5912 12.3187 16.0818 10.4906 16.0818H1.20938C0.759375 16.0818 0.421875 16.4475 0.421875 16.8693C0.421875 17.3193 0.7875 17.6568 1.20938 17.6568H10.4625C13.1625 17.6568 15.3281 15.4631 15.3281 12.7912V4.77559H15.3562Z" fill="#008978"/>
<path id="Vector_2" d="M7.25626 13.7754C8.40939 13.4098 9.05626 12.6785 9.19689 11.6379C9.36564 10.3723 8.97189 9.41602 8.01564 8.82539C7.67814 8.62852 7.31251 8.45977 6.94689 8.29102C6.75001 8.20664 6.58126 8.12227 6.38439 8.03789C6.27189 7.98164 6.15939 7.92539 6.04689 7.86914C5.70939 7.72852 5.40001 7.55977 5.11876 7.39102C4.66876 7.10977 4.52814 6.49102 4.72501 5.87227C4.89376 5.36602 5.25939 5.14102 5.87814 5.14102C6.49689 5.14102 6.91876 5.42227 7.11564 5.95664C7.17189 6.12539 7.20001 6.29414 7.22814 6.46289V6.49102C7.22814 6.54727 7.25626 6.63164 7.25626 6.68789H9.19689C9.25314 6.15352 9.11251 5.50664 8.83126 5.02852C8.40939 4.29727 7.73439 3.87539 6.69376 3.65039L6.52501 3.62227V2.66602H5.42814V3.50977L5.28751 3.56602C5.17501 3.59414 5.06251 3.62227 4.95001 3.67852C4.64064 3.76289 4.33126 3.84727 4.07814 3.98789C3.23439 4.40977 2.70001 5.25352 2.61564 6.20977C2.53126 7.16602 2.95314 8.03789 3.68439 8.57227C4.07814 8.85352 4.52814 9.05039 4.95001 9.24727C5.14689 9.33164 5.34376 9.41602 5.51251 9.50039C5.62501 9.55664 5.73751 9.61289 5.85001 9.66914L5.93439 9.69727C6.21564 9.80977 6.46876 9.95039 6.72189 10.091C7.17189 10.4004 7.36876 10.991 7.17189 11.6098C7.00314 12.116 6.60939 12.3973 6.01876 12.3973C5.87814 12.3973 5.73751 12.3973 5.59689 12.3973C4.86564 12.341 4.38751 11.8629 4.30314 11.1316C4.30314 11.0754 4.30314 11.0473 4.27501 10.991L4.24689 10.7941H2.33439C2.16564 12.4254 3.09376 13.4379 5.17501 13.9441L5.31564 13.9723V14.7598H6.41251V13.9723L6.72189 13.916C6.89064 13.8598 7.08751 13.8316 7.25626 13.7754Z" fill="#008978"/>
</g>
</g>
</svg>
