<svg width="25" height="24" viewBox="0 0 25 24" fill="none" xmlns="http://www.w3.org/2000/svg">
<path d="M18.03 7.77C17.96 7.76 17.89 7.76 17.82 7.77C16.27 7.72 15.04 6.45 15.04 4.89C15.04 3.3 16.33 2 17.93 2C19.52 2 20.82 3.29 20.82 4.89C20.81 6.45 19.58 7.72 18.03 7.77Z" fill="#5B32CC"/>
<path d="M21.2901 14.6999C20.1701 15.4499 18.6001 15.7299 17.1501 15.5399C17.5301 14.7199 17.7301 13.8099 17.7401 12.8499C17.7401 11.8499 17.5201 10.8999 17.1001 10.0699C18.5801 9.86991 20.1501 10.1499 21.2801 10.8999C22.8601 11.9399 22.8601 13.6499 21.2901 14.6999Z" fill="#5B32CC"/>
<path d="M6.94016 7.77C7.01016 7.76 7.08016 7.76 7.15016 7.77C8.70016 7.72 9.93016 6.45 9.93016 4.89C9.93016 3.29 8.64016 2 7.04016 2C5.45016 2 4.16016 3.29 4.16016 4.89C4.16016 6.45 5.39016 7.72 6.94016 7.77Z" fill="#5B32CC"/>
<path d="M7.05012 12.8501C7.05012 13.8201 7.26012 14.7401 7.64012 15.5701C6.23012 15.7201 4.76012 15.4201 3.68012 14.7101C2.10012 13.6601 2.10012 11.9501 3.68012 10.9001C4.75012 10.1801 6.26012 9.8901 7.68012 10.0501C7.27012 10.8901 7.05012 11.8401 7.05012 12.8501Z" fill="#5B32CC"/>
<path d="M12.6198 15.87C12.5398 15.86 12.4498 15.86 12.3598 15.87C10.5198 15.81 9.0498 14.3 9.0498 12.44C9.0598 10.54 10.5898 9 12.4998 9C14.3998 9 15.9398 10.54 15.9398 12.44C15.9298 14.3 14.4698 15.81 12.6198 15.87Z" fill="#5B32CC"/>
<path d="M9.3698 17.9401C7.8598 18.9501 7.8598 20.6101 9.3698 21.6101C11.0898 22.7601 13.9098 22.7601 15.6298 21.6101C17.1398 20.6001 17.1398 18.9401 15.6298 17.9401C13.9198 16.7901 11.0998 16.7901 9.3698 17.9401Z" fill="#5B32CC"/>
</svg>
