<svg width="24" height="25" viewBox="0 0 24 25" fill="none" xmlns="http://www.w3.org/2000/svg">
<g id="fi_33308">
<g id="Group">
<path id="Vector" d="M14.483 5.89137C15.5927 6.58714 16.3708 7.76453 16.5125 9.13121C16.965 9.34266 17.4673 9.46427 17.9999 9.46427C19.944 9.46427 21.5197 7.88853 21.5197 5.94469C21.5197 4.00054 19.944 2.4248 17.9999 2.4248C16.0743 2.4254 14.5123 3.97299 14.483 5.89137ZM12.177 13.0983C14.1212 13.0983 15.6969 11.5222 15.6969 9.57838C15.6969 7.63454 14.1209 6.0588 12.177 6.0588C10.2332 6.0588 8.65653 7.63484 8.65653 9.57868C8.65653 11.5225 10.2332 13.0983 12.177 13.0983ZM13.6701 13.3382H10.6833C8.19828 13.3382 6.17656 15.3602 6.17656 17.8452V21.4978L6.18585 21.555L6.43744 21.6338C8.80899 22.3748 10.8693 22.6219 12.5652 22.6219C15.8775 22.6219 17.7974 21.6775 17.9157 21.6173L18.1508 21.4984H18.176V17.8452C18.1769 15.3602 16.1551 13.3382 13.6701 13.3382ZM19.4935 9.70448H16.5298C16.4978 10.8902 15.9916 11.958 15.191 12.726C17.3999 13.3828 19.0161 15.4312 19.0161 17.8506V18.9762C21.9423 18.869 23.6286 18.0396 23.7397 17.9839L23.9748 17.8647H24V14.211C24 11.7262 21.9783 9.70448 19.4935 9.70448ZM6.00075 9.46487C6.68933 9.46487 7.32999 9.26389 7.87271 8.92155C8.04523 7.79628 8.64845 6.81297 9.51015 6.14326C9.51374 6.07737 9.52003 6.01208 9.52003 5.94558C9.52003 4.00144 7.94399 2.4257 6.00075 2.4257C4.05631 2.4257 2.48087 4.00144 2.48087 5.94558C2.48087 7.88883 4.05631 9.46487 6.00075 9.46487ZM9.16181 12.726C8.36511 11.9619 7.86073 10.8998 7.82389 9.72125C7.71397 9.71316 7.60524 9.70448 7.49322 9.70448H4.50678C2.02171 9.70448 0 11.7262 0 14.211V17.8641L0.00928491 17.9204L0.260876 17.9998C2.16338 18.5937 3.86133 18.8675 5.33613 18.9537V17.8506C5.33673 15.4312 6.9523 13.3834 9.16181 12.726Z" fill="currentColor"/>
</g>
</g>
</svg>
