<svg width="336" height="168" viewBox="0 0 336 168" fill="none" xmlns="http://www.w3.org/2000/svg">
<rect x="0.5" y="0.5" width="335" height="167" rx="11.5" fill="white" stroke="#758590" stroke-dasharray="5 5"/>
<g opacity="0.4">
<path opacity="0.4" d="M180.946 61.8799H176.442C172.749 61.8799 169.741 58.8724 169.741 55.1791V50.6755C169.741 49.8184 169.04 49.1172 168.183 49.1172H161.575C156.776 49.1172 152.896 52.2339 152.896 57.7971V71.6039C152.896 77.1672 156.776 80.2839 161.575 80.2839H173.824C178.624 80.2839 182.504 77.1672 182.504 71.6039V63.4383C182.504 62.5812 181.803 61.8799 180.946 61.8799Z" fill="#292D32"/>
<path d="M173.622 49.4443C172.983 48.8054 171.876 49.2417 171.876 50.1299V55.5685C171.876 57.8437 173.809 59.7293 176.162 59.7293C177.642 59.7449 179.699 59.7449 181.46 59.7449C182.348 59.7449 182.816 58.7008 182.193 58.0774C179.949 55.8179 175.928 51.7506 173.622 49.4443Z" fill="#292D32"/>
<path d="M166.968 65.4322L163.851 62.3155C163.836 62.2999 163.82 62.2999 163.82 62.2843C163.726 62.1908 163.602 62.1129 163.477 62.0506C163.462 62.0506 163.462 62.0506 163.446 62.0506C163.321 62.0038 163.197 61.9882 163.072 61.9727C163.025 61.9727 162.994 61.9727 162.947 61.9727C162.854 61.9727 162.745 62.0038 162.651 62.035C162.604 62.0506 162.573 62.0662 162.542 62.0817C162.417 62.1441 162.293 62.2064 162.199 62.3155L159.083 65.4322C158.631 65.8841 158.631 66.6321 159.083 67.084C159.535 67.5359 160.283 67.5359 160.734 67.084L161.856 65.962V72.4914C161.856 73.1303 162.386 73.6602 163.025 73.6602C163.664 73.6602 164.194 73.1303 164.194 72.4914V65.962L165.316 67.084C165.55 67.3177 165.846 67.4268 166.142 67.4268C166.438 67.4268 166.734 67.3177 166.968 67.084C167.42 66.6321 167.42 65.8841 166.968 65.4322Z" fill="#292D32"/>
</g>
<path d="M122.608 100.198C122.608 101.082 122.447 101.822 122.125 102.416C121.803 103.007 121.336 103.453 120.723 103.753C120.114 104.051 119.375 104.199 118.505 104.199H116.373V96.3467H118.741C119.54 96.3467 120.227 96.4935 120.804 96.7871C121.38 97.0771 121.824 97.5086 122.136 98.0815C122.451 98.6509 122.608 99.3563 122.608 100.198ZM121.647 100.23C121.647 99.5246 121.529 98.9427 121.293 98.4844C121.06 98.026 120.716 97.6859 120.261 97.4639C119.81 97.2383 119.257 97.1255 118.602 97.1255H117.286V103.415H118.398C119.479 103.415 120.29 103.148 120.831 102.615C121.375 102.081 121.647 101.286 121.647 100.23ZM127.005 98.2051C127.123 98.2051 127.246 98.2122 127.375 98.2266C127.504 98.2373 127.619 98.2534 127.719 98.2749L127.606 99.1021C127.509 99.077 127.402 99.0573 127.284 99.043C127.166 99.0286 127.055 99.0215 126.951 99.0215C126.715 99.0215 126.491 99.0698 126.279 99.1665C126.072 99.2596 125.889 99.3957 125.732 99.5747C125.574 99.7502 125.451 99.9632 125.361 100.214C125.272 100.461 125.227 100.737 125.227 101.041V104.199H124.33V98.3125H125.071L125.168 99.3975H125.205C125.327 99.179 125.474 98.9803 125.646 98.8013C125.818 98.6187 126.016 98.4736 126.242 98.3662C126.471 98.2588 126.725 98.2051 127.005 98.2051ZM131.143 98.2158C131.845 98.2158 132.366 98.3734 132.706 98.6885C133.046 99.0036 133.216 99.5067 133.216 100.198V104.199H132.566L132.394 103.329H132.351C132.187 103.544 132.015 103.725 131.836 103.872C131.657 104.015 131.449 104.124 131.213 104.199C130.98 104.271 130.694 104.307 130.353 104.307C129.995 104.307 129.677 104.244 129.397 104.119C129.122 103.993 128.903 103.804 128.742 103.549C128.584 103.295 128.506 102.973 128.506 102.583C128.506 101.995 128.738 101.544 129.204 101.229C129.669 100.914 130.378 100.742 131.331 100.713L132.346 100.67V100.311C132.346 99.8021 132.237 99.4458 132.018 99.2417C131.8 99.0376 131.492 98.9355 131.095 98.9355C130.787 98.9355 130.493 98.9803 130.214 99.0698C129.934 99.1593 129.669 99.265 129.419 99.3867L129.145 98.71C129.41 98.5739 129.714 98.4575 130.058 98.3608C130.402 98.2642 130.763 98.2158 131.143 98.2158ZM132.335 101.299L131.438 101.336C130.704 101.365 130.187 101.485 129.886 101.696C129.585 101.908 129.435 102.207 129.435 102.593C129.435 102.93 129.537 103.179 129.741 103.34C129.945 103.501 130.216 103.582 130.552 103.582C131.075 103.582 131.503 103.437 131.836 103.146C132.169 102.856 132.335 102.421 132.335 101.841V101.299ZM136.807 106.842C136.033 106.842 135.437 106.697 135.018 106.407C134.599 106.12 134.39 105.717 134.39 105.198C134.39 104.829 134.506 104.514 134.739 104.253C134.975 103.992 135.301 103.818 135.716 103.732C135.562 103.66 135.43 103.553 135.319 103.41C135.211 103.266 135.158 103.102 135.158 102.916C135.158 102.701 135.217 102.513 135.335 102.352C135.457 102.187 135.641 102.029 135.888 101.879C135.58 101.754 135.33 101.542 135.136 101.245C134.946 100.944 134.852 100.595 134.852 100.198C134.852 99.7752 134.939 99.4154 135.115 99.1182C135.29 98.8174 135.544 98.5882 135.877 98.4307C136.21 98.2731 136.613 98.1943 137.086 98.1943C137.19 98.1943 137.294 98.1997 137.397 98.2104C137.505 98.2176 137.607 98.2301 137.704 98.248C137.8 98.2624 137.884 98.2803 137.956 98.3018H139.976V98.8765L138.891 99.0107C138.998 99.1504 139.088 99.3187 139.159 99.5156C139.231 99.7126 139.267 99.931 139.267 100.171C139.267 100.758 139.068 101.225 138.67 101.573C138.273 101.917 137.727 102.088 137.032 102.088C136.867 102.088 136.699 102.074 136.527 102.045C136.352 102.142 136.218 102.25 136.124 102.368C136.035 102.486 135.99 102.622 135.99 102.776C135.99 102.89 136.024 102.982 136.092 103.05C136.164 103.118 136.266 103.168 136.398 103.2C136.531 103.229 136.69 103.243 136.876 103.243H137.913C138.554 103.243 139.045 103.377 139.385 103.646C139.728 103.915 139.9 104.307 139.9 104.822C139.9 105.474 139.635 105.973 139.105 106.321C138.575 106.668 137.809 106.842 136.807 106.842ZM136.833 106.144C137.32 106.144 137.723 106.093 138.042 105.993C138.364 105.896 138.604 105.755 138.762 105.569C138.923 105.386 139.003 105.168 139.003 104.914C139.003 104.677 138.95 104.498 138.842 104.376C138.735 104.258 138.577 104.18 138.37 104.14C138.162 104.097 137.908 104.076 137.607 104.076H136.586C136.321 104.076 136.09 104.117 135.894 104.199C135.697 104.282 135.544 104.403 135.437 104.564C135.333 104.726 135.281 104.926 135.281 105.166C135.281 105.485 135.416 105.726 135.684 105.891C135.953 106.059 136.336 106.144 136.833 106.144ZM137.064 101.438C137.491 101.438 137.811 101.331 138.026 101.116C138.241 100.901 138.348 100.588 138.348 100.176C138.348 99.7358 138.239 99.4064 138.02 99.188C137.802 98.966 137.48 98.855 137.054 98.855C136.645 98.855 136.33 98.9696 136.108 99.1987C135.89 99.4243 135.781 99.7555 135.781 100.192C135.781 100.593 135.892 100.901 136.114 101.116C136.336 101.331 136.653 101.438 137.064 101.438ZM146.415 98.2158C147.117 98.2158 147.638 98.3734 147.978 98.6885C148.318 99.0036 148.489 99.5067 148.489 100.198V104.199H147.839L147.667 103.329H147.624C147.459 103.544 147.287 103.725 147.108 103.872C146.929 104.015 146.721 104.124 146.485 104.199C146.252 104.271 145.966 104.307 145.626 104.307C145.268 104.307 144.949 104.244 144.67 104.119C144.394 103.993 144.176 103.804 144.014 103.549C143.857 103.295 143.778 102.973 143.778 102.583C143.778 101.995 144.011 101.544 144.476 101.229C144.942 100.914 145.651 100.742 146.603 100.713L147.618 100.67V100.311C147.618 99.8021 147.509 99.4458 147.291 99.2417C147.072 99.0376 146.764 98.9355 146.367 98.9355C146.059 98.9355 145.765 98.9803 145.486 99.0698C145.207 99.1593 144.942 99.265 144.691 99.3867L144.417 98.71C144.682 98.5739 144.987 98.4575 145.33 98.3608C145.674 98.2642 146.036 98.2158 146.415 98.2158ZM147.608 101.299L146.711 101.336C145.977 101.365 145.459 101.485 145.158 101.696C144.858 101.908 144.707 102.207 144.707 102.593C144.707 102.93 144.809 103.179 145.013 103.34C145.218 103.501 145.488 103.582 145.824 103.582C146.347 103.582 146.775 103.437 147.108 103.146C147.441 102.856 147.608 102.421 147.608 101.841V101.299ZM153.223 98.2051C153.921 98.2051 154.449 98.377 154.808 98.7207C155.166 99.0609 155.345 99.6087 155.345 100.364V104.199H154.464V100.423C154.464 99.9328 154.351 99.5658 154.125 99.3223C153.903 99.0788 153.561 98.957 153.1 98.957C152.448 98.957 151.989 99.1414 151.725 99.5103C151.46 99.8791 151.327 100.414 151.327 101.116V104.199H150.435V98.3125H151.155L151.289 99.1611H151.338C151.463 98.9535 151.622 98.7798 151.816 98.6401C152.009 98.4969 152.226 98.3895 152.466 98.3179C152.706 98.2427 152.958 98.2051 153.223 98.2051ZM159.386 104.307C158.641 104.307 158.051 104.052 157.614 103.544C157.181 103.035 156.964 102.28 156.964 101.277C156.964 100.264 157.186 99.4995 157.63 98.9839C158.074 98.4647 158.665 98.2051 159.402 98.2051C159.714 98.2051 159.986 98.2463 160.219 98.3286C160.452 98.411 160.652 98.522 160.82 98.6616C160.989 98.7977 161.13 98.9535 161.245 99.1289H161.309C161.295 99.0179 161.28 98.8657 161.266 98.6724C161.252 98.479 161.245 98.3215 161.245 98.1997V95.8418H162.136V104.199H161.417L161.282 103.361H161.245C161.134 103.537 160.992 103.696 160.82 103.839C160.652 103.983 160.45 104.097 160.213 104.183C159.981 104.265 159.705 104.307 159.386 104.307ZM159.526 103.565C160.156 103.565 160.602 103.386 160.863 103.028C161.125 102.67 161.255 102.139 161.255 101.433V101.272C161.255 100.524 161.13 99.9489 160.879 99.5479C160.632 99.1468 160.181 98.9463 159.526 98.9463C158.978 98.9463 158.568 99.1576 158.296 99.5801C158.024 99.999 157.888 100.572 157.888 101.299C157.888 102.022 158.022 102.581 158.291 102.975C158.563 103.368 158.974 103.565 159.526 103.565ZM173.474 100.198C173.474 101.082 173.313 101.822 172.991 102.416C172.669 103.007 172.201 103.453 171.589 103.753C170.98 104.051 170.241 104.199 169.371 104.199H167.239V96.3467H169.607C170.406 96.3467 171.093 96.4935 171.67 96.7871C172.246 97.0771 172.69 97.5086 173.002 98.0815C173.317 98.6509 173.474 99.3563 173.474 100.198ZM172.513 100.23C172.513 99.5246 172.395 98.9427 172.159 98.4844C171.926 98.026 171.582 97.6859 171.127 97.4639C170.676 97.2383 170.123 97.1255 169.468 97.1255H168.152V103.415H169.263C170.345 103.415 171.156 103.148 171.697 102.615C172.241 102.081 172.513 101.286 172.513 100.23ZM177.871 98.2051C177.989 98.2051 178.112 98.2122 178.241 98.2266C178.37 98.2373 178.485 98.2534 178.585 98.2749L178.472 99.1021C178.375 99.077 178.268 99.0573 178.15 99.043C178.032 99.0286 177.921 99.0215 177.817 99.0215C177.581 99.0215 177.357 99.0698 177.145 99.1665C176.938 99.2596 176.755 99.3957 176.598 99.5747C176.44 99.7502 176.317 99.9632 176.227 100.214C176.137 100.461 176.093 100.737 176.093 101.041V104.199H175.196V98.3125H175.937L176.034 99.3975H176.071C176.193 99.179 176.34 98.9803 176.512 98.8013C176.684 98.6187 176.882 98.4736 177.108 98.3662C177.337 98.2588 177.591 98.2051 177.871 98.2051ZM184.882 101.245C184.882 101.729 184.82 102.16 184.694 102.54C184.569 102.919 184.388 103.24 184.152 103.501C183.916 103.762 183.629 103.963 183.293 104.103C182.96 104.239 182.582 104.307 182.159 104.307C181.765 104.307 181.404 104.239 181.074 104.103C180.748 103.963 180.466 103.762 180.226 103.501C179.989 103.24 179.805 102.919 179.672 102.54C179.544 102.16 179.479 101.729 179.479 101.245C179.479 100.601 179.588 100.053 179.807 99.6016C180.025 99.1468 180.337 98.8013 180.741 98.5649C181.15 98.325 181.635 98.2051 182.197 98.2051C182.734 98.2051 183.203 98.325 183.604 98.5649C184.009 98.8049 184.322 99.1522 184.544 99.6069C184.77 100.058 184.882 100.604 184.882 101.245ZM180.403 101.245C180.403 101.718 180.466 102.128 180.591 102.475C180.716 102.822 180.91 103.091 181.171 103.281C181.432 103.471 181.769 103.565 182.181 103.565C182.589 103.565 182.924 103.471 183.185 103.281C183.45 103.091 183.645 102.822 183.771 102.475C183.896 102.128 183.959 101.718 183.959 101.245C183.959 100.776 183.896 100.371 183.771 100.031C183.645 99.6875 183.452 99.4225 183.191 99.2363C182.929 99.0501 182.591 98.957 182.175 98.957C181.563 98.957 181.114 99.1593 180.827 99.564C180.544 99.9686 180.403 100.529 180.403 101.245ZM189.3 98.2051C190.034 98.2051 190.62 98.4575 191.056 98.9624C191.493 99.4673 191.712 100.226 191.712 101.24C191.712 101.909 191.611 102.472 191.411 102.926C191.21 103.381 190.927 103.725 190.562 103.958C190.201 104.19 189.773 104.307 189.279 104.307C188.967 104.307 188.693 104.265 188.457 104.183C188.22 104.101 188.018 103.99 187.85 103.85C187.682 103.71 187.542 103.558 187.431 103.394H187.366C187.377 103.533 187.39 103.701 187.404 103.898C187.422 104.095 187.431 104.267 187.431 104.414V106.831H186.534V98.3125H187.27L187.388 99.1826H187.431C187.545 99.0036 187.685 98.8407 187.85 98.6938C188.015 98.5435 188.215 98.4253 188.451 98.3394C188.691 98.2498 188.974 98.2051 189.3 98.2051ZM189.144 98.957C188.736 98.957 188.407 99.0358 188.156 99.1934C187.909 99.3509 187.728 99.5872 187.614 99.9023C187.499 100.214 187.438 100.606 187.431 101.079V101.25C187.431 101.748 187.485 102.169 187.592 102.513C187.703 102.856 187.884 103.118 188.135 103.297C188.389 103.476 188.729 103.565 189.155 103.565C189.52 103.565 189.825 103.467 190.068 103.27C190.312 103.073 190.492 102.799 190.611 102.448C190.732 102.094 190.793 101.687 190.793 101.229C190.793 100.534 190.657 99.9829 190.385 99.5747C190.116 99.1629 189.703 98.957 189.144 98.957ZM202.432 104.199H201.519V100.499H197.394V104.199H196.481V96.3467H197.394V99.6929H201.519V96.3467H202.432V104.199ZM206.834 98.2051C207.335 98.2051 207.765 98.3161 208.123 98.5381C208.481 98.7601 208.755 99.0716 208.944 99.4727C209.134 99.8701 209.229 100.336 209.229 100.869V101.422H205.163C205.174 102.113 205.346 102.64 205.679 103.001C206.012 103.363 206.481 103.544 207.086 103.544C207.458 103.544 207.788 103.51 208.074 103.442C208.361 103.374 208.658 103.274 208.966 103.141V103.925C208.669 104.058 208.373 104.154 208.08 104.215C207.79 104.276 207.446 104.307 207.048 104.307C206.483 104.307 205.989 104.192 205.566 103.963C205.147 103.73 204.821 103.39 204.589 102.942C204.356 102.495 204.239 101.947 204.239 101.299C204.239 100.665 204.345 100.117 204.556 99.6553C204.771 99.1898 205.072 98.8317 205.459 98.5811C205.849 98.3304 206.307 98.2051 206.834 98.2051ZM206.823 98.9355C206.347 98.9355 205.967 99.0913 205.684 99.4028C205.401 99.7144 205.233 100.149 205.179 100.708H208.295C208.291 100.357 208.236 100.049 208.128 99.7842C208.024 99.5156 207.865 99.3079 207.65 99.1611C207.435 99.0107 207.159 98.9355 206.823 98.9355ZM213.529 98.2051C213.647 98.2051 213.77 98.2122 213.899 98.2266C214.028 98.2373 214.143 98.2534 214.243 98.2749L214.13 99.1021C214.033 99.077 213.926 99.0573 213.808 99.043C213.69 99.0286 213.579 99.0215 213.475 99.0215C213.239 99.0215 213.015 99.0698 212.804 99.1665C212.596 99.2596 212.413 99.3957 212.256 99.5747C212.098 99.7502 211.975 99.9632 211.885 100.214C211.796 100.461 211.751 100.737 211.751 101.041V104.199H210.854V98.3125H211.595L211.692 99.3975H211.729C211.851 99.179 211.998 98.9803 212.17 98.8013C212.342 98.6187 212.54 98.4736 212.766 98.3662C212.995 98.2588 213.249 98.2051 213.529 98.2051ZM217.731 98.2051C218.233 98.2051 218.662 98.3161 219.02 98.5381C219.379 98.7601 219.652 99.0716 219.842 99.4727C220.032 99.8701 220.127 100.336 220.127 100.869V101.422H216.061C216.072 102.113 216.244 102.64 216.577 103.001C216.91 103.363 217.379 103.544 217.984 103.544C218.356 103.544 218.686 103.51 218.972 103.442C219.259 103.374 219.556 103.274 219.864 103.141V103.925C219.567 104.058 219.271 104.154 218.977 104.215C218.687 104.276 218.344 104.307 217.946 104.307C217.38 104.307 216.886 104.192 216.464 103.963C216.045 103.73 215.719 103.39 215.486 102.942C215.254 102.495 215.137 101.947 215.137 101.299C215.137 100.665 215.243 100.117 215.454 99.6553C215.669 99.1898 215.97 98.8317 216.356 98.5811C216.747 98.3304 217.205 98.2051 217.731 98.2051ZM217.721 98.9355C217.244 98.9355 216.865 99.0913 216.582 99.4028C216.299 99.7144 216.131 100.149 216.077 100.708H219.192C219.189 100.357 219.133 100.049 219.026 99.7842C218.922 99.5156 218.763 99.3079 218.548 99.1611C218.333 99.0107 218.057 98.9355 217.721 98.9355ZM130.126 116.245C130.126 116.729 130.064 117.16 129.938 117.54C129.813 117.919 129.632 118.24 129.396 118.501C129.16 118.762 128.873 118.963 128.537 119.103C128.204 119.239 127.826 119.307 127.403 119.307C127.009 119.307 126.648 119.239 126.318 119.103C125.993 118.963 125.71 118.762 125.47 118.501C125.233 118.24 125.049 117.919 124.917 117.54C124.788 117.16 124.723 116.729 124.723 116.245C124.723 115.601 124.832 115.053 125.051 114.602C125.269 114.147 125.581 113.801 125.985 113.565C126.394 113.325 126.879 113.205 127.441 113.205C127.978 113.205 128.447 113.325 128.848 113.565C129.253 113.805 129.566 114.152 129.788 114.607C130.014 115.058 130.126 115.604 130.126 116.245ZM125.647 116.245C125.647 116.718 125.71 117.128 125.835 117.475C125.96 117.822 126.154 118.091 126.415 118.281C126.676 118.471 127.013 118.565 127.425 118.565C127.833 118.565 128.168 118.471 128.429 118.281C128.694 118.091 128.889 117.822 129.015 117.475C129.14 117.128 129.203 116.718 129.203 116.245C129.203 115.776 129.14 115.371 129.015 115.031C128.889 114.688 128.696 114.423 128.435 114.236C128.173 114.05 127.835 113.957 127.419 113.957C126.807 113.957 126.358 114.159 126.071 114.564C125.788 114.969 125.647 115.529 125.647 116.245ZM134.453 113.205C134.571 113.205 134.694 113.212 134.823 113.227C134.952 113.237 135.067 113.253 135.167 113.275L135.054 114.102C134.958 114.077 134.85 114.057 134.732 114.043C134.614 114.029 134.503 114.021 134.399 114.021C134.163 114.021 133.939 114.07 133.728 114.167C133.52 114.26 133.337 114.396 133.18 114.575C133.022 114.75 132.899 114.963 132.809 115.214C132.72 115.461 132.675 115.737 132.675 116.041V119.199H131.778V113.312H132.519L132.616 114.397H132.653C132.775 114.179 132.922 113.98 133.094 113.801C133.266 113.619 133.465 113.474 133.69 113.366C133.919 113.259 134.173 113.205 134.453 113.205ZM139.491 111.347H141.714C142.695 111.347 143.433 111.493 143.927 111.787C144.421 112.081 144.668 112.58 144.668 113.286C144.668 113.59 144.609 113.864 144.491 114.107C144.377 114.347 144.208 114.546 143.986 114.704C143.764 114.861 143.49 114.97 143.164 115.031V115.085C143.508 115.139 143.813 115.237 144.078 115.38C144.343 115.524 144.55 115.724 144.701 115.982C144.851 116.24 144.926 116.567 144.926 116.965C144.926 117.448 144.813 117.856 144.588 118.189C144.366 118.522 144.051 118.775 143.643 118.947C143.234 119.115 142.751 119.199 142.192 119.199H139.491V111.347ZM140.404 114.714H141.908C142.592 114.714 143.064 114.602 143.326 114.376C143.591 114.15 143.723 113.821 143.723 113.388C143.723 112.94 143.566 112.618 143.25 112.421C142.939 112.224 142.441 112.125 141.757 112.125H140.404V114.714ZM140.404 115.482V118.42H142.037C142.735 118.42 143.229 118.284 143.519 118.012C143.809 117.736 143.954 117.366 143.954 116.9C143.954 116.603 143.888 116.349 143.755 116.138C143.626 115.926 143.415 115.765 143.122 115.654C142.831 115.54 142.443 115.482 141.956 115.482H140.404ZM149.253 113.205C149.371 113.205 149.494 113.212 149.623 113.227C149.752 113.237 149.867 113.253 149.967 113.275L149.854 114.102C149.757 114.077 149.65 114.057 149.532 114.043C149.414 114.029 149.303 114.021 149.199 114.021C148.962 114.021 148.739 114.07 148.527 114.167C148.32 114.26 148.137 114.396 147.98 114.575C147.822 114.75 147.698 114.963 147.609 115.214C147.519 115.461 147.475 115.737 147.475 116.041V119.199H146.578V113.312H147.319L147.416 114.397H147.453C147.575 114.179 147.722 113.98 147.894 113.801C148.066 113.619 148.264 113.474 148.49 113.366C148.719 113.259 148.973 113.205 149.253 113.205ZM156.264 116.245C156.264 116.729 156.202 117.16 156.076 117.54C155.951 117.919 155.77 118.24 155.534 118.501C155.298 118.762 155.011 118.963 154.675 119.103C154.342 119.239 153.964 119.307 153.541 119.307C153.147 119.307 152.786 119.239 152.456 119.103C152.13 118.963 151.848 118.762 151.608 118.501C151.371 118.24 151.187 117.919 151.054 117.54C150.926 117.16 150.861 116.729 150.861 116.245C150.861 115.601 150.97 115.053 151.189 114.602C151.407 114.147 151.719 113.801 152.123 113.565C152.531 113.325 153.017 113.205 153.579 113.205C154.116 113.205 154.585 113.325 154.986 113.565C155.391 113.805 155.704 114.152 155.926 114.607C156.152 115.058 156.264 115.604 156.264 116.245ZM151.785 116.245C151.785 116.718 151.848 117.128 151.973 117.475C152.098 117.822 152.292 118.091 152.553 118.281C152.814 118.471 153.151 118.565 153.563 118.565C153.971 118.565 154.306 118.471 154.567 118.281C154.832 118.091 155.027 117.822 155.153 117.475C155.278 117.128 155.341 116.718 155.341 116.245C155.341 115.776 155.278 115.371 155.153 115.031C155.027 114.688 154.834 114.423 154.572 114.236C154.311 114.05 153.973 113.957 153.557 113.957C152.945 113.957 152.496 114.159 152.209 114.564C151.926 114.969 151.785 115.529 151.785 116.245ZM162.707 119.188L161.66 115.762C161.613 115.615 161.568 115.472 161.525 115.332C161.486 115.189 161.448 115.053 161.412 114.924C161.38 114.791 161.35 114.67 161.321 114.559C161.296 114.444 161.275 114.346 161.257 114.263H161.219C161.205 114.346 161.185 114.444 161.16 114.559C161.135 114.67 161.105 114.791 161.069 114.924C161.036 115.056 161.001 115.196 160.961 115.343C160.922 115.486 160.877 115.631 160.827 115.778L159.731 119.188H158.727L157.105 113.302H158.029L158.877 116.551C158.935 116.766 158.988 116.979 159.038 117.19C159.092 117.398 159.137 117.595 159.173 117.781C159.212 117.964 159.241 118.123 159.259 118.259H159.302C159.323 118.17 159.346 118.062 159.371 117.937C159.4 117.812 159.431 117.679 159.463 117.54C159.499 117.396 159.536 117.255 159.576 117.115C159.615 116.972 159.654 116.838 159.694 116.712L160.779 113.302H161.74L162.787 116.707C162.841 116.879 162.893 117.058 162.943 117.244C162.997 117.43 163.045 117.611 163.088 117.787C163.131 117.958 163.162 118.112 163.18 118.249H163.223C163.237 118.127 163.264 117.976 163.303 117.797C163.342 117.618 163.387 117.421 163.437 117.207C163.491 116.992 163.547 116.773 163.604 116.551L164.463 113.302H165.371L163.744 119.188H162.707ZM170.363 117.588C170.363 117.964 170.268 118.281 170.079 118.539C169.892 118.793 169.624 118.984 169.273 119.113C168.926 119.242 168.51 119.307 168.027 119.307C167.615 119.307 167.259 119.274 166.958 119.21C166.657 119.146 166.394 119.054 166.168 118.936V118.114C166.408 118.232 166.695 118.34 167.028 118.437C167.361 118.533 167.701 118.582 168.048 118.582C168.557 118.582 168.926 118.499 169.155 118.334C169.384 118.17 169.499 117.946 169.499 117.663C169.499 117.502 169.452 117.361 169.359 117.239C169.269 117.113 169.117 116.993 168.902 116.879C168.688 116.761 168.39 116.632 168.011 116.492C167.635 116.349 167.309 116.208 167.033 116.068C166.761 115.925 166.55 115.751 166.399 115.547C166.253 115.343 166.179 115.078 166.179 114.752C166.179 114.254 166.38 113.873 166.781 113.608C167.185 113.339 167.715 113.205 168.371 113.205C168.725 113.205 169.056 113.241 169.364 113.312C169.676 113.381 169.966 113.474 170.234 113.592L169.934 114.306C169.69 114.202 169.431 114.115 169.155 114.043C168.879 113.971 168.598 113.936 168.312 113.936C167.9 113.936 167.583 114.004 167.361 114.14C167.142 114.276 167.033 114.462 167.033 114.698C167.033 114.881 167.083 115.031 167.184 115.149C167.287 115.268 167.452 115.379 167.678 115.482C167.903 115.586 168.201 115.708 168.569 115.848C168.938 115.984 169.257 116.125 169.525 116.272C169.794 116.415 170 116.591 170.143 116.798C170.29 117.002 170.363 117.266 170.363 117.588ZM174.174 113.205C174.675 113.205 175.105 113.316 175.463 113.538C175.821 113.76 176.095 114.072 176.285 114.473C176.475 114.87 176.569 115.336 176.569 115.869V116.422H172.504C172.514 117.113 172.686 117.64 173.019 118.001C173.352 118.363 173.821 118.544 174.426 118.544C174.799 118.544 175.128 118.51 175.415 118.442C175.701 118.374 175.998 118.274 176.306 118.141V118.925C176.009 119.058 175.714 119.154 175.42 119.215C175.13 119.276 174.786 119.307 174.389 119.307C173.823 119.307 173.329 119.192 172.906 118.963C172.487 118.73 172.162 118.39 171.929 117.942C171.696 117.495 171.58 116.947 171.58 116.299C171.58 115.665 171.685 115.117 171.897 114.655C172.111 114.19 172.412 113.832 172.799 113.581C173.189 113.33 173.648 113.205 174.174 113.205ZM174.163 113.936C173.687 113.936 173.307 114.091 173.025 114.403C172.742 114.714 172.573 115.149 172.52 115.708H175.635C175.631 115.357 175.576 115.049 175.468 114.784C175.365 114.516 175.205 114.308 174.99 114.161C174.776 114.011 174.5 113.936 174.163 113.936ZM182.053 113.312V119.199H181.162V113.312H182.053ZM181.618 111.11C181.765 111.11 181.89 111.159 181.994 111.255C182.101 111.348 182.155 111.495 182.155 111.696C182.155 111.893 182.101 112.04 181.994 112.136C181.89 112.233 181.765 112.281 181.618 112.281C181.464 112.281 181.335 112.233 181.231 112.136C181.131 112.04 181.081 111.893 181.081 111.696C181.081 111.495 181.131 111.348 181.231 111.255C181.335 111.159 181.464 111.11 181.618 111.11ZM190.445 113.205C191.093 113.205 191.582 113.375 191.912 113.715C192.241 114.052 192.406 114.594 192.406 115.343V119.199H191.525V115.386C191.525 114.91 191.421 114.553 191.213 114.317C191.009 114.077 190.705 113.957 190.3 113.957C189.731 113.957 189.317 114.122 189.06 114.451C188.802 114.781 188.673 115.266 188.673 115.907V119.199H187.787V115.386C187.787 115.067 187.74 114.802 187.647 114.591C187.558 114.38 187.421 114.222 187.239 114.118C187.06 114.011 186.832 113.957 186.557 113.957C186.166 113.957 185.853 114.038 185.617 114.199C185.38 114.36 185.209 114.6 185.101 114.918C184.997 115.234 184.945 115.622 184.945 116.084V119.199H184.054V113.312H184.773L184.908 114.145H184.956C185.074 113.941 185.223 113.769 185.402 113.629C185.581 113.49 185.781 113.384 186.003 113.312C186.225 113.241 186.462 113.205 186.712 113.205C187.16 113.205 187.534 113.289 187.835 113.458C188.139 113.622 188.36 113.875 188.496 114.215H188.544C188.737 113.875 189.002 113.622 189.339 113.458C189.676 113.289 190.044 113.205 190.445 113.205ZM196.55 113.216C197.251 113.216 197.772 113.373 198.113 113.688C198.453 114.004 198.623 114.507 198.623 115.198V119.199H197.973L197.801 118.329H197.758C197.593 118.544 197.421 118.725 197.242 118.872C197.063 119.015 196.856 119.124 196.619 119.199C196.387 119.271 196.1 119.307 195.76 119.307C195.402 119.307 195.083 119.244 194.804 119.119C194.528 118.993 194.31 118.804 194.149 118.549C193.991 118.295 193.912 117.973 193.912 117.583C193.912 116.995 194.145 116.544 194.611 116.229C195.076 115.914 195.785 115.742 196.738 115.713L197.753 115.67V115.311C197.753 114.802 197.643 114.446 197.425 114.242C197.207 114.038 196.899 113.936 196.501 113.936C196.193 113.936 195.9 113.98 195.62 114.07C195.341 114.159 195.076 114.265 194.825 114.387L194.551 113.71C194.816 113.574 195.121 113.458 195.465 113.361C195.808 113.264 196.17 113.216 196.55 113.216ZM197.742 116.299L196.845 116.336C196.111 116.365 195.593 116.485 195.293 116.696C194.992 116.908 194.842 117.207 194.842 117.593C194.842 117.93 194.944 118.179 195.148 118.34C195.352 118.501 195.622 118.582 195.959 118.582C196.481 118.582 196.909 118.437 197.242 118.146C197.575 117.856 197.742 117.421 197.742 116.841V116.299ZM202.213 121.842C201.44 121.842 200.844 121.697 200.425 121.407C200.006 121.12 199.796 120.717 199.796 120.198C199.796 119.829 199.913 119.514 200.145 119.253C200.382 118.992 200.708 118.818 201.123 118.732C200.969 118.66 200.836 118.553 200.725 118.41C200.618 118.266 200.564 118.102 200.564 117.916C200.564 117.701 200.623 117.513 200.742 117.352C200.863 117.187 201.048 117.029 201.295 116.879C200.987 116.754 200.736 116.542 200.543 116.245C200.353 115.944 200.258 115.595 200.258 115.198C200.258 114.775 200.346 114.415 200.521 114.118C200.697 113.817 200.951 113.588 201.284 113.431C201.617 113.273 202.02 113.194 202.493 113.194C202.596 113.194 202.7 113.2 202.804 113.21C202.911 113.218 203.014 113.23 203.11 113.248C203.207 113.262 203.291 113.28 203.363 113.302H205.382V113.876L204.297 114.011C204.405 114.15 204.494 114.319 204.566 114.516C204.637 114.713 204.673 114.931 204.673 115.171C204.673 115.758 204.474 116.225 204.077 116.573C203.68 116.917 203.133 117.088 202.439 117.088C202.274 117.088 202.106 117.074 201.934 117.045C201.758 117.142 201.624 117.25 201.531 117.368C201.442 117.486 201.397 117.622 201.397 117.776C201.397 117.89 201.431 117.982 201.499 118.05C201.57 118.118 201.673 118.168 201.805 118.2C201.938 118.229 202.097 118.243 202.283 118.243H203.32C203.961 118.243 204.451 118.377 204.791 118.646C205.135 118.915 205.307 119.307 205.307 119.822C205.307 120.474 205.042 120.973 204.512 121.321C203.982 121.668 203.216 121.842 202.213 121.842ZM202.24 121.144C202.727 121.144 203.13 121.093 203.449 120.993C203.771 120.896 204.011 120.755 204.168 120.569C204.329 120.386 204.41 120.168 204.41 119.914C204.41 119.677 204.356 119.498 204.249 119.376C204.141 119.258 203.984 119.18 203.776 119.14C203.569 119.097 203.314 119.076 203.014 119.076H201.993C201.728 119.076 201.497 119.117 201.3 119.199C201.103 119.282 200.951 119.403 200.844 119.564C200.74 119.726 200.688 119.926 200.688 120.166C200.688 120.485 200.822 120.726 201.091 120.891C201.359 121.059 201.742 121.144 202.24 121.144ZM202.471 116.438C202.897 116.438 203.218 116.331 203.432 116.116C203.647 115.901 203.755 115.588 203.755 115.176C203.755 114.736 203.646 114.406 203.427 114.188C203.209 113.966 202.886 113.855 202.46 113.855C202.052 113.855 201.737 113.97 201.515 114.199C201.297 114.424 201.187 114.756 201.187 115.192C201.187 115.593 201.298 115.901 201.52 116.116C201.742 116.331 202.059 116.438 202.471 116.438ZM208.919 113.205C209.42 113.205 209.85 113.316 210.208 113.538C210.566 113.76 210.84 114.072 211.03 114.473C211.22 114.87 211.314 115.336 211.314 115.869V116.422H207.249C207.259 117.113 207.431 117.64 207.764 118.001C208.097 118.363 208.566 118.544 209.171 118.544C209.544 118.544 209.873 118.51 210.16 118.442C210.446 118.374 210.743 118.274 211.051 118.141V118.925C210.754 119.058 210.459 119.154 210.165 119.215C209.875 119.276 209.531 119.307 209.134 119.307C208.568 119.307 208.074 119.192 207.651 118.963C207.232 118.73 206.907 118.39 206.674 117.942C206.441 117.495 206.325 116.947 206.325 116.299C206.325 115.665 206.43 115.117 206.642 114.655C206.856 114.19 207.157 113.832 207.544 113.581C207.934 113.33 208.393 113.205 208.919 113.205ZM208.908 113.936C208.432 113.936 208.052 114.091 207.77 114.403C207.487 114.714 207.318 115.149 207.265 115.708H210.38C210.376 115.357 210.321 115.049 210.213 114.784C210.11 114.516 209.95 114.308 209.735 114.161C209.52 114.011 209.245 113.936 208.908 113.936Z" fill="#7C7B7B"/>
</svg>
